<?xml version="1.0" encoding="UTF-8"?>
<svg id="Layer_1" data-name="Layer 1" xmlns="http://www.w3.org/2000/svg" viewBox="0 0 222.67 287.07">
  <defs>
    <style>
      .cls-1 {
        fill: #f7f9f9;
      }
    </style>
  </defs>
  <path class="cls-1" d="M133.97,225.09h-44.62c-2.52,0-4.56-2.04-4.56-4.56h0c0-2.52,2.04-4.56,4.56-4.56h44.62c2.52,0,4.56,2.04,4.56,4.56h0c0,2.52-2.04,4.56-4.56,4.56Z"/>
  <path class="cls-1" d="M133.97,239.41h-44.62c-2.52,0-4.56-2.04-4.56-4.56h0c0-2.52,2.04-4.56,4.56-4.56h44.62c2.52,0,4.56,2.04,4.56,4.56h0c0,2.52-2.04,4.56-4.56,4.56Z"/>
  <path class="cls-1" d="M100.83,244.8c-1.1,0-1.94,1.01-1.74,2.09,1.1,5.87,6.24,10.32,12.44,10.32s11.34-4.45,12.44-10.32c.2-1.09-.64-2.09-1.74-2.09h-21.4Z"/>
  <path class="cls-1" d="M123.86,31.38c-7.64-1.43-15.75-1.52-23.43-.28-32.88,5.32-56.75,33.4-56.75,66.76,0,24.71,9.84,39.99,19.36,54.77,8.73,13.55,16.97,26.35,18.49,46.55,.47,6.19,5.69,11.05,11.9,11.05h35.83c6.21,0,11.43-4.85,11.9-11.05,1.52-20.2,9.76-33,18.49-46.55,9.52-14.78,19.36-30.06,19.36-54.77,0-32.55-23.19-60.51-55.14-66.48Zm-42.72,108.03c-.78,.57-1.69,.84-2.59,.84-1.36,0-2.7-.63-3.56-1.81-24.44-33.58-6.43-65.09-5.65-66.41,1.23-2.1,3.93-2.8,6.03-1.56,2.09,1.23,2.79,3.92,1.57,6.02-.67,1.16-15.78,28,5.17,56.77,1.43,1.97,1,4.72-.97,6.15Z"/>
</svg>