<?xml version="1.0" encoding="utf-8"?>
<!-- Generator: Adobe Illustrator 26.4.1, SVG Export Plug-In . SVG Version: 6.00 Build 0)  -->
<svg version="1.1" id="Layer_1" xmlns="http://www.w3.org/2000/svg" xmlns:xlink="http://www.w3.org/1999/xlink" x="0px" y="0px"
	 viewBox="0 0 178.4 217.6" style="enable-background:new 0 0 178.4 217.6;" xml:space="preserve">
<style type="text/css">
	.st0{fill:url(#SVGID_1_);}
	.st1{fill:#FFFFFF;}
	.st2{fill:#7360A9;}
</style>
<linearGradient id="SVGID_1_" gradientUnits="userSpaceOnUse" x1="90.4265" y1="137.66" x2="90.4265" y2="-16.61" gradientTransform="matrix(1 0 0 -1 0 226)">
	<stop  offset="0" style="stop-color:#6A4EA0"/>
	<stop  offset="1" style="stop-color:#262262"/>
</linearGradient>
<path class="st0" d="M36.5,9.4h107.9c12.8,0,23.2,10.4,23.2,23.2v111.6c0,12.8-10.4,23.2-23.2,23.2H36.5
	c-12.8,0-23.2-10.4-23.2-23.2V32.5C13.3,19.7,23.7,9.4,36.5,9.4z"/>
<g>
	<path class="st1" d="M130.5,36.3h-81c-10,0-11.9,11.3-11.9,11.3v47.1c0,0-0.7,13.6,12.3,13.6h61.3V93.4c0,0,17.1-5.2,17.1-19V54.1
		h-9v-3.9h-6.4v12.9h6.1v-3.2h2.6v16.5c0,0-1,9.2-12.3,9.2c-11.9,0-13.9-10.2-13.9-10.2V59.5h2.3v4.2h5.8V50.2h-5.8v3.5h-8.7
		c0,0-0.3,13.6,0,20.7c1.6,14.2,16.5,18.1,16.5,18.1v9.4c0,0-49.4,0.7-55.5,0c-6.1-0.7-5.5-5.2-5.5-5.2V48.2c0,0,0.3-5.8,6.1-5.8
		s73.9-0.3,80.7,0c6.8,0.3,5.8,7.4,5.8,7.4v63.9h-36.5L83.5,130c-2.1-1.5-4.6-2.4-7.4-2.4c-7,0-12.7,5.7-12.7,12.7
		S69.1,153,76.1,153s12.7-5.7,12.7-12.7c0-2.1-0.5-4.1-1.4-5.8l15.6-15h40.3V47C143.3,47,143.6,36.3,130.5,36.3L130.5,36.3z
		 M76.1,148.7c-4.6,0-8.4-3.8-8.4-8.4s3.8-8.4,8.4-8.4s8.4,3.8,8.4,8.4S80.8,148.7,76.1,148.7z"/>
	<ellipse class="st1" cx="58.9" cy="72" rx="4.5" ry="7.6"/>
	<ellipse class="st1" cx="76.1" cy="72" rx="4.5" ry="7.6"/>
	<circle class="st1" cx="76.1" cy="140.3" r="4.5"/>
</g>
<path class="st1" d="M130.5,36.3h-81c-10,0-11.9,11.3-11.9,11.3v47.1c0,0-0.7,13.6,12.3,13.6h61.3V93.4c0,0,17.1-5.2,17.1-19V54.1
	h-9v-3.9h-6.4v12.9h6.1v-3.2h2.6v16.5c0,0-1,9.2-12.3,9.2c-11.9,0-13.9-10.2-13.9-10.2V59.5h2.3v4.2h5.8V50.2h-5.8v3.5h-8.7
	c0,0-0.3,13.6,0,20.7c1.6,14.2,16.5,18.1,16.5,18.1v9.4c0,0-49.4,0.7-55.5,0c-6.1-0.7-5.5-5.2-5.5-5.2V48.2c0,0,0.3-5.8,6.1-5.8
	s73.9-0.3,80.7,0c6.8,0.3,5.8,7.4,5.8,7.4v63.9h-36.5L83.5,130c-2.1-1.5-4.6-2.4-7.4-2.4c-7,0-12.7,5.7-12.7,12.7S69.1,153,76.1,153
	s12.7-5.7,12.7-12.7c0-2.1-0.5-4.1-1.4-5.8l15.6-15h40.3V47C143.3,47,143.6,36.3,130.5,36.3L130.5,36.3z M76.1,148.7
	c-4.6,0-8.4-3.8-8.4-8.4s3.8-8.4,8.4-8.4s8.4,3.8,8.4,8.4S80.8,148.7,76.1,148.7z"/>
<ellipse class="st1" cx="90.4" cy="72" rx="4.5" ry="7.6"/>
<ellipse class="st1" cx="90.4" cy="72" rx="4.5" ry="7.6"/>
<circle class="st1" cx="90.4" cy="140.3" r="4.5"/>
<g>
	<g>
		<path class="st2" d="M25.4,195l8.4-9.6h8.5l-10.6,11.1l11.6,12.3h-9l-9-10.1v10.1h-6.9v-23.4h6.9V195z"/>
		<path class="st2" d="M52,185.4v18.2h8.3v5.1H45v-23.4H52z"/>
		<path class="st2" d="M66.2,197.5l-9.7-12.1h8.3l4.9,6.4l4.9-6.4h8.3l-9.8,12.1v11.2h-6.9V197.5z"/>
		<path class="st2" d="M83.9,208.7v-23.4h6.9l12.8,14.3v-14.3h6.9v23.4h-6.9l-12.8-14.3v14.3H83.9z"/>
		<path class="st2" d="M124.7,190.5v18.2h-6.9v-18.2h-5.7v-5.1h18.3v5.1H124.7z"/>
		<path class="st2" d="M139,185.4v23.4h-6.9v-23.4H139z"/>
		<path class="st2" d="M162.4,193.2c-1.6-1.7-3.6-2.6-5.9-2.6c-1,0-2,0.2-2.9,0.5c-0.9,0.3-1.6,0.8-2.3,1.3s-1.1,1.2-1.5,2
			c-0.4,0.8-0.5,1.6-0.5,2.5c0,0.9,0.2,1.8,0.5,2.6c0.4,0.8,0.9,1.5,1.5,2c0.6,0.6,1.4,1,2.3,1.4c0.9,0.3,1.8,0.5,2.8,0.5
			c2.2,0,4.2-0.8,6-2.5v7.2l-0.7,0.2c-1.1,0.3-2,0.6-3,0.7c-0.9,0.2-1.8,0.2-2.7,0.2c-1.8,0-3.6-0.3-5.3-0.9s-3.2-1.5-4.5-2.6
			c-1.3-1.1-2.3-2.4-3.1-3.9c-0.8-1.5-1.2-3.2-1.2-5s0.4-3.4,1.1-4.9s1.8-2.8,3.1-3.9c1.3-1.1,2.8-1.9,4.5-2.5
			c1.7-0.6,3.5-0.9,5.3-0.9c1.1,0,2.1,0.1,3.1,0.3s2.1,0.5,3.2,0.9V193.2z"/>
	</g>
</g>
</svg>
