<?xml version="1.0" encoding="UTF-8"?>
<svg id="Layer_1" data-name="Layer 1" xmlns="http://www.w3.org/2000/svg" xmlns:xlink="http://www.w3.org/1999/xlink" viewBox="0 0 316.42 223.58">
  <defs>
    <style>
      .cls-1 {
        fill: url(#linear-gradient);
      }

      .cls-2 {
        letter-spacing: -.04em;
      }

      .cls-3 {
        letter-spacing: .01em;
      }

      .cls-4 {
        fill: #fff;
      }

      .cls-5 {
        fill: #7360a9;
        font-family: Futura-Bold, Futura;
        font-size: 30.99px;
        font-weight: 700;
      }
    </style>
    <linearGradient id="linear-gradient" x1="159.16" y1="88.34" x2="159.16" y2="242.61" gradientUnits="userSpaceOnUse">
      <stop offset="0" stop-color="#6a4ea0"/>
      <stop offset="1" stop-color="#262262"/>
    </linearGradient>
  </defs>
  <rect class="cls-1" x="82.02" y="9.35" width="154.27" height="157.98" rx="23.17" ry="23.17"/>
  <g>
    <path class="cls-4" d="M198.53,36.3H117.52c-10,0-11.94,11.3-11.94,11.3v47.12s-.65,13.55,12.26,13.55h61.32v-14.85s17.1-5.16,17.1-19.04v-20.33h-9.04v-3.87h-6.45v12.91h6.13v-3.23h2.58v16.46s-.97,9.2-12.26,9.2c-11.94,0-13.88-10.17-13.88-10.17v-15.81h2.26v4.2h5.81v-13.55h-5.81v3.55h-8.71s-.32,13.55,0,20.65c1.62,14.2,16.46,18.07,16.46,18.07v9.36s-49.38,.65-55.51,0c-6.13-.65-5.49-5.16-5.49-5.16V48.24s.32-5.79,6.13-5.81c5.81-.02,73.91-.32,80.68,0,6.78,.32,5.81,7.42,5.81,7.42v63.9h-36.47l-16.91,16.28c-2.09-1.51-4.64-2.4-7.42-2.4-7.02,0-12.7,5.69-12.7,12.7s5.69,12.7,12.7,12.7,12.7-5.69,12.7-12.7c0-2.09-.51-4.06-1.41-5.8l15.61-14.97h40.34V46.95s.21-10.65-12.91-10.65Zm-54.34,112.44c-4.64,0-8.41-3.76-8.41-8.41s3.76-8.41,8.41-8.41,8.41,3.76,8.41,8.41-3.76,8.41-8.41,8.41Z"/>
    <ellipse class="cls-4" cx="127.01" cy="72.04" rx="4.48" ry="7.56"/>
    <ellipse class="cls-4" cx="144.19" cy="72.04" rx="4.48" ry="7.56"/>
    <circle class="cls-4" cx="144.19" cy="140.34" r="4.48"/>
  </g>
  <path class="cls-4" d="M198.53,36.3H117.52c-10,0-11.94,11.3-11.94,11.3v47.12s-.65,13.55,12.26,13.55h61.32v-14.85s17.1-5.16,17.1-19.04v-20.33h-9.04v-3.87h-6.45v12.91h6.13v-3.23h2.58v16.46s-.97,9.2-12.26,9.2c-11.94,0-13.88-10.17-13.88-10.17v-15.81h2.26v4.2h5.81v-13.55h-5.81v3.55h-8.71s-.32,13.55,0,20.65c1.62,14.2,16.46,18.07,16.46,18.07v9.36s-49.38,.65-55.51,0c-6.13-.65-5.49-5.16-5.49-5.16V48.24s.32-5.79,6.13-5.81c5.81-.02,73.91-.32,80.68,0,6.78,.32,5.81,7.42,5.81,7.42v63.9h-36.47l-16.91,16.28c-2.09-1.51-4.64-2.4-7.42-2.4-7.02,0-12.7,5.69-12.7,12.7s5.69,12.7,12.7,12.7,12.7-5.69,12.7-12.7c0-2.09-.51-4.06-1.41-5.8l15.61-14.97h40.34V46.95s.21-10.65-12.91-10.65Zm-54.34,112.44c-4.64,0-8.41-3.76-8.41-8.41s3.76-8.41,8.41-8.41,8.41,3.76,8.41,8.41-3.76,8.41-8.41,8.41Z"/>
  <ellipse class="cls-4" cx="127.01" cy="72.04" rx="4.48" ry="7.56"/>
  <ellipse class="cls-4" cx="144.19" cy="72.04" rx="4.48" ry="7.56"/>
  <circle class="cls-4" cx="144.19" cy="140.34" r="4.48"/>
  <text class="cls-5" transform="translate(11.08 209.53)"><tspan x="0" y="0">HEA</tspan><tspan class="cls-2" x="68.32" y="0">L</tspan><tspan x="83.57" y="0">TH </tspan><tspan class="cls-3" x="136.46" y="0">C</tspan><tspan x="157.47" y="0">ONNECT</tspan></text>
</svg>