<?xml version="1.0" encoding="UTF-8"?>
<svg id="Layer_1" data-name="Layer 1" xmlns="http://www.w3.org/2000/svg" xmlns:xlink="http://www.w3.org/1999/xlink" viewBox="0 0 162 163.89">
  <defs>
    <style>
      .cls-1 {
        fill: url(#linear-gradient);
      }

      .cls-2 {
        fill: #fff;
      }
    </style>
    <linearGradient id="linear-gradient" x1="81.47" y1="81.23" x2="81.47" y2="232.18" gradientUnits="userSpaceOnUse">
      <stop offset="0" stop-color="#6a4ea0"/>
      <stop offset="1" stop-color="#262262"/>
    </linearGradient>
  </defs>
  <rect class="cls-1" x="6" y="3.94" width="150.95" height="154.58" rx="23.17" ry="23.17"/>
  <g>
    <path class="cls-2" d="M120,30.32H40.74c-9.79,0-11.68,11.05-11.68,11.05v46.11s-.63,13.26,12,13.26h60v-14.53s16.74-5.05,16.74-18.63v-19.89h-8.84v-3.79h-6.32v12.63h6v-3.16h2.53v16.11s-.95,9-12,9c-11.68,0-13.58-9.95-13.58-9.95v-15.47h2.21v4.11h5.68v-13.26h-5.68v3.47h-8.53s-.32,13.26,0,20.21c1.58,13.89,16.11,17.68,16.11,17.68v9.16s-48.32,.63-54.32,0c-6-.63-5.37-5.05-5.37-5.05V42s.31-5.66,6-5.68c5.69-.02,72.32-.32,78.95,0,6.63,.32,5.68,7.26,5.68,7.26v62.53h-35.68l-16.54,15.93c-2.04-1.47-4.54-2.35-7.26-2.35-6.87,0-12.43,5.57-12.43,12.43s5.57,12.43,12.43,12.43,12.43-5.57,12.43-12.43c0-2.05-.5-3.97-1.38-5.67l15.27-14.65h39.47V40.74s.21-10.42-12.63-10.42Zm-53.17,110.02c-4.54,0-8.23-3.68-8.23-8.23s3.68-8.23,8.23-8.23,8.23,3.68,8.23,8.23-3.68,8.23-8.23,8.23Z"/>
    <ellipse class="cls-2" cx="50.02" cy="65.28" rx="4.39" ry="7.39"/>
    <ellipse class="cls-2" cx="66.83" cy="65.28" rx="4.39" ry="7.39"/>
    <circle class="cls-2" cx="66.83" cy="132.11" r="4.39"/>
  </g>
  <path class="cls-2" d="M120,30.32H40.74c-9.79,0-11.68,11.05-11.68,11.05v46.11s-.63,13.26,12,13.26h60v-14.53s16.74-5.05,16.74-18.63v-19.89h-8.84v-3.79h-6.32v12.63h6v-3.16h2.53v16.11s-.95,9-12,9c-11.68,0-13.58-9.95-13.58-9.95v-15.47h2.21v4.11h5.68v-13.26h-5.68v3.47h-8.53s-.32,13.26,0,20.21c1.58,13.89,16.11,17.68,16.11,17.68v9.16s-48.32,.63-54.32,0c-6-.63-5.37-5.05-5.37-5.05V42s.31-5.66,6-5.68c5.69-.02,72.32-.32,78.95,0,6.63,.32,5.68,7.26,5.68,7.26v62.53h-35.68l-16.54,15.93c-2.04-1.47-4.54-2.35-7.26-2.35-6.87,0-12.43,5.57-12.43,12.43s5.57,12.43,12.43,12.43,12.43-5.57,12.43-12.43c0-2.05-.5-3.97-1.38-5.67l15.27-14.65h39.47V40.74s.21-10.42-12.63-10.42Zm-53.17,110.02c-4.54,0-8.23-3.68-8.23-8.23s3.68-8.23,8.23-8.23,8.23,3.68,8.23,8.23-3.68,8.23-8.23,8.23Z"/>
  <ellipse class="cls-2" cx="50.02" cy="65.28" rx="4.39" ry="7.39"/>
  <ellipse class="cls-2" cx="66.83" cy="65.28" rx="4.39" ry="7.39"/>
  <circle class="cls-2" cx="66.83" cy="132.11" r="4.39"/>
</svg>