<?xml version="1.0" encoding="utf-8"?>
<!-- Generator: Adobe Illustrator 27.0.0, SVG Export Plug-In . SVG Version: 6.00 Build 0)  -->
<svg version="1.1" id="Layer_1" xmlns="http://www.w3.org/2000/svg" xmlns:xlink="http://www.w3.org/1999/xlink" x="0px" y="0px"
	 viewBox="0 0 72.8 67.6" style="enable-background:new 0 0 72.8 67.6;" xml:space="preserve">
<style type="text/css">
	.st0{stroke:#000000;stroke-width:2;stroke-miterlimit:10;}
	.st1{stroke:#000000;stroke-miterlimit:10;}
</style>
<path class="st0" d="M4,51.9c0.3-0.5,0.8-0.7,1.4-0.7c2.1,0,4.3,0,6.5,0c0.2,0,0.5,0,0.8,0c0-0.3,0-0.5,0-0.7
	c0.1-12.2,0.2-24.4,0.3-36.6c0-1,0.4-1.4,1.5-1.4c8.5,0,17,0,25.5,0c0.5,0,0.8-0.1,1-0.7c2.5-5.9,8.4-9.7,14.8-9.4
	C62.7,2.7,68.8,8,70,14.9c1.4,8.2-3.7,15.9-11.8,17.7c-1.3,0.3-2.6,0.3-3.9,0.4c0,0.1,0,0.4,0,0.6c0,7.7,0,15.5,0,23.2
	c0,4.2-2.7,7.5-6.7,8.4c-0.9,0.2-1.9,0.2-2.8,0.2c-10.6,0-21.3,0-31.9,0c-4.3,0-7.7-2.8-8.5-7c0-0.1-0.1-0.2-0.1-0.4
	C4,56,4,53.9,4,51.9z M15.1,14.7C15,26.9,14.9,39,14.8,51.2c0.4,0,0.6,0,0.9,0c7.4,0,14.8,0,22.2,0c1.1,0,1.4,0.3,1.4,1.4
	c0,1.5,0,3,0,4.5c0,3.4,2.9,6.2,6.3,6.2c3.4,0,6.2-2.8,6.2-6.2c0-8,0-15.9,0-23.9c0-0.4-0.1-0.6-0.5-0.7c-3.7-0.9-6.7-2.9-8.9-6.1
	c-0.2-0.4-0.5-0.5-0.9-0.5c-3.5,0-6.9,0-10.4,0c-0.9,0-1.4-0.4-1.4-1.1c0-0.7,0.5-1.1,1.3-1.1c1.7,0,3.3,0,5,0c1.6,0,3.2,0,4.7,0
	c-0.3-1.5-0.8-3-1-4.5c-0.2-1.5,0-3,0-4.6C31.7,14.7,23.4,14.7,15.1,14.7z M68,17.7c0-7.2-5.8-13.1-13-13.1
	c-7.2,0-13.1,5.9-13.1,13.1c0,7.2,5.8,13,13.1,13.1C62.2,30.7,68,24.9,68,17.7z M37.2,53.4c-10.4,0-20.7,0-31.1,0c0,1.2,0,2.3,0,3.5
	c0,3.7,2.8,6.4,6.4,6.4c8.9,0,17.8,0,26.8,0c0.2,0,0.4,0,0.6,0c-0.1-0.1-0.2-0.2-0.2-0.2c-1.7-1.7-2.5-3.8-2.5-6.2
	C37.2,55.6,37.2,54.5,37.2,53.4z"/>
<path class="st1" d="M38.1,44.6c-2.3,0-4.6,0-6.9,0c-0.9,0-1.3-0.4-1.3-1.1c0-0.7,0.5-1.1,1.3-1.1c4.6,0,9.2,0,13.8,0
	c0.8,0,1.3,0.4,1.3,1.1c0,0.7-0.5,1.1-1.3,1.1C42.7,44.6,40.4,44.6,38.1,44.6z"/>
<path class="st1" d="M38.1,33.1c2.4,0,4.7,0,7.1,0c0.7,0,1.1,0.4,1.2,1c0,0.6-0.4,1.1-1.1,1.1c-0.2,0-0.3,0-0.5,0
	c-0.9,0-1.9,0-2.8,0c-3.5,0-7,0-10.5,0c-0.3,0-0.6,0-0.9-0.1C30,35,29.8,34.5,29.9,34c0.1-0.6,0.5-0.9,1.1-0.9
	C33.3,33.1,35.7,33.1,38.1,33.1z"/>
<path class="st1" d="M24,46.8c-1.9,0-3.5-1.5-3.5-3.3c0-1.8,1.6-3.3,3.4-3.3c1.9,0,3.5,1.5,3.5,3.4C27.5,45.3,25.9,46.8,24,46.8z
	 M24,44.6c0.7,0,1.3-0.5,1.3-1.2c0-0.6-0.6-1.1-1.3-1.1c-0.7,0-1.3,0.6-1.3,1.2C22.8,44.1,23.3,44.6,24,44.6z"/>
<path class="st1" d="M24,28.2c-1.9,0-3.4-1.5-3.4-3.3c0-1.8,1.6-3.4,3.5-3.3c1.9,0,3.4,1.5,3.4,3.3C27.5,26.7,25.9,28.2,24,28.2z
	 M24,26c0.7,0,1.3-0.6,1.3-1.2c0-0.6-0.6-1.1-1.2-1.2c-0.7,0-1.3,0.5-1.3,1.1C22.7,25.5,23.3,26,24,26z"/>
<path class="st1" d="M24,37.5c-1.9,0-3.4-1.5-3.4-3.3c0-1.8,1.6-3.4,3.5-3.4c1.9,0,3.4,1.5,3.4,3.3C27.5,36,25.9,37.5,24,37.5z
	 M24,35.3c0.7,0,1.3-0.5,1.3-1.1c0-0.6-0.6-1.2-1.3-1.2c-0.7,0-1.2,0.5-1.3,1.1C22.7,34.8,23.3,35.3,24,35.3z"/>
<path class="st1" d="M57.3,21.1c0-1.3-0.9-2.3-2.2-2.4c-2.4-0.2-3.9-1.4-4.5-3.4c-0.6-2.2,0.5-4.5,2.6-5.3c0.5-0.2,0.7-0.5,0.7-1
	c-0.1-0.5,0.1-1,0.6-1.3c0.7-0.4,1.6,0.2,1.5,1.1c0,0.7,0.2,1,0.9,1.2c1.7,0.7,2.6,2.1,2.7,3.9c0.1,0.8-0.4,1.3-1,1.3
	c-0.6,0-1.1-0.4-1.2-1.2c-0.1-1.3-1.1-2.3-2.4-2.3c-1.2,0-2.2,0.9-2.4,2.2c-0.2,1.4,0.9,2.5,2.6,2.6c2.1,0.1,3.8,1.5,4.3,3.6
	c0.5,2.2-0.7,4.4-2.8,5.2c-0.5,0.2-0.7,0.5-0.6,1c0,0.2,0,0.3,0,0.5c-0.1,0.6-0.5,0.9-1.1,0.9c-0.6,0-1.1-0.3-1-0.9
	c0.1-1.1-0.5-1.5-1.3-1.9c-1.4-0.8-2.1-2-2.1-3.6c0-0.7,0.3-1.2,0.9-1.3c0.7-0.1,1.1,0.3,1.2,1c0.2,1.6,1.1,2.4,2.5,2.4
	C56.3,23.4,57.3,22.4,57.3,21.1z"/>
</svg>
