<?xml version="1.0" encoding="UTF-8" standalone="no"?>
<!-- Created with Inkscape (http://www.inkscape.org/) -->

<svg
   width="126.80502mm"
   height="27.213453mm"
   viewBox="0 0 126.80501 27.213453"
   version="1.1"
   id="svg5"
   inkscape:version="1.1.1 (3bf5ae0d25, 2021-09-20)"
   sodipodi:docname="logo-text.svg"
   xmlns:inkscape="http://www.inkscape.org/namespaces/inkscape"
   xmlns:sodipodi="http://sodipodi.sourceforge.net/DTD/sodipodi-0.dtd"
   xmlns="http://www.w3.org/2000/svg"
   xmlns:svg="http://www.w3.org/2000/svg">
  <sodipodi:namedview
     id="namedview7"
     pagecolor="#505050"
     bordercolor="#ffffff"
     borderopacity="1"
     inkscape:pageshadow="0"
     inkscape:pageopacity="0"
     inkscape:pagecheckerboard="1"
     inkscape:document-units="mm"
     showgrid="false"
     inkscape:zoom="1"
     inkscape:cx="158"
     inkscape:cy="72"
     inkscape:current-layer="g830" />
  <defs
     id="defs2">
    <clipPath
       clipPathUnits="userSpaceOnUse"
       id="clipPath842">
      <path
         d="M 0,629.008 H 809.008 V 0 H 0 Z"
         id="path840" />
    </clipPath>
  </defs>
  <g
     inkscape:label="Capa 1"
     inkscape:groupmode="layer"
     id="layer1"
     transform="translate(-81.041854,-128.87279)">
    <g
       id="g830"
       inkscape:label="Classhome marca"
       transform="matrix(0.35277777,0,0,-0.35277777,55.628449,229.20773)">
      <g
         id="g836">
        <g
           id="g838"
           clip-path="url(#clipPath842)">
          <g
             id="g962"
             transform="translate(287.4722,213.7759)">
            <path
               d="M 0,0 -1.29,3.73 -2.581,0 Z m 0.485,-1.431 h -3.551 l -0.588,-1.698 h -1.878 l 3.206,8.928 h 2.083 l 3.206,-8.928 h -1.89 z"
               style="fill:#1226aa;fill-opacity:1;fill-rule:nonzero;stroke:none"
               id="path964" />
          </g>
          <g
             id="g966"
             transform="translate(296.9058,215.3155)">
            <path
               d="m 0,0 c -0.175,0.311 -0.405,0.547 -0.69,0.709 -0.286,0.162 -0.594,0.243 -0.927,0.243 -0.323,0 -0.628,-0.083 -0.913,-0.249 -0.285,-0.166 -0.515,-0.407 -0.69,-0.722 -0.175,-0.315 -0.262,-0.686 -0.262,-1.112 0,-0.425 0.087,-0.796 0.262,-1.111 0.175,-0.315 0.405,-0.555 0.69,-0.721 0.285,-0.167 0.59,-0.25 0.913,-0.25 0.333,0 0.641,0.085 0.927,0.256 0.285,0.17 0.515,0.413 0.69,0.728 0.174,0.314 0.261,0.689 0.261,1.124 C 0.261,-0.679 0.174,-0.312 0,0 m -2.53,2.197 c 0.405,0.218 0.866,0.325 1.386,0.325 0.605,0 1.152,-0.148 1.642,-0.447 0.49,-0.297 0.877,-0.721 1.162,-1.27 0.285,-0.55 0.428,-1.186 0.428,-1.91 0,-0.724 -0.143,-1.365 -0.428,-1.923 -0.285,-0.558 -0.672,-0.99 -1.162,-1.296 -0.49,-0.307 -1.037,-0.46 -1.642,-0.46 -0.52,0 -0.977,0.106 -1.373,0.319 -0.396,0.213 -0.718,0.481 -0.965,0.805 V -8.042 H -5.27 v 10.45 h 1.788 V 1.386 c 0.231,0.323 0.547,0.594 0.952,0.811"
               style="fill:#1226aa;fill-opacity:1;fill-rule:nonzero;stroke:none"
               id="path968" />
          </g>
          <g
             id="g970"
             transform="translate(302.9864,217.5059)">
            <path
               d="M 0,0 C 0.37,0.213 0.794,0.319 1.271,0.319 V -1.559 H 0.798 c -0.562,0 -0.985,-0.131 -1.271,-0.395 -0.285,-0.264 -0.428,-0.724 -0.428,-1.38 v -3.525 h -1.788 v 7.077 h 1.788 V -0.881 C -0.671,-0.506 -0.371,-0.213 0,0"
               style="fill:#1226aa;fill-opacity:1;fill-rule:nonzero;stroke:none"
               id="path972" />
          </g>
          <g
             id="g974"
             transform="translate(310.1846,214.8492)">
            <path
               d="M 0,0 C -0.009,0.46 -0.175,0.828 -0.499,1.104 -0.822,1.382 -1.218,1.52 -1.687,1.52 -2.129,1.52 -2.502,1.386 -2.804,1.118 -3.106,0.85 -3.292,0.477 -3.359,0 Z m 1.801,-1.201 h -5.174 c 0.043,-0.511 0.222,-0.911 0.537,-1.201 0.315,-0.289 0.703,-0.434 1.162,-0.434 0.665,0 1.137,0.285 1.419,0.856 H 1.673 C 1.469,-2.662 1.077,-3.221 0.498,-3.66 c -0.579,-0.439 -1.29,-0.658 -2.134,-0.658 -0.681,0 -1.291,0.151 -1.832,0.454 -0.541,0.302 -0.963,0.73 -1.265,1.283 -0.303,0.554 -0.454,1.192 -0.454,1.916 0,0.733 0.149,1.376 0.448,1.93 0.298,0.553 0.715,0.979 1.252,1.277 0.536,0.298 1.154,0.447 1.851,0.447 0.674,0 1.277,-0.145 1.808,-0.435 0.533,-0.288 0.945,-0.7 1.24,-1.232 0.294,-0.532 0.441,-1.143 0.441,-1.833 0,-0.256 -0.018,-0.486 -0.052,-0.69"
               style="fill:#1226aa;fill-opacity:1;fill-rule:nonzero;stroke:none"
               id="path976" />
          </g>
          <g
             id="g978"
             transform="translate(319.3047,217.0274)">
            <path
               d="m 0,0 c 0.519,-0.533 0.78,-1.275 0.78,-2.229 v -4.152 h -1.789 v 3.909 c 0,0.562 -0.141,0.994 -0.422,1.297 -0.281,0.301 -0.664,0.453 -1.15,0.453 -0.494,0 -0.882,-0.152 -1.169,-0.453 -0.284,-0.303 -0.427,-0.735 -0.427,-1.297 v -3.909 h -1.788 v 7.077 h 1.788 v -0.881 c 0.239,0.306 0.543,0.547 0.913,0.722 0.37,0.173 0.777,0.261 1.22,0.261 C -1.201,0.798 -0.52,0.532 0,0"
               style="fill:#1226aa;fill-opacity:1;fill-rule:nonzero;stroke:none"
               id="path980" />
          </g>
          <g
             id="g982"
             transform="translate(326.6372,215.3028)">
            <path
               d="m 0,0 c -0.171,0.311 -0.401,0.549 -0.69,0.715 -0.29,0.166 -0.6,0.249 -0.933,0.249 -0.332,0 -0.638,-0.08 -0.919,-0.242 -0.281,-0.162 -0.509,-0.399 -0.684,-0.709 -0.175,-0.312 -0.261,-0.68 -0.261,-1.106 0,-0.425 0.086,-0.798 0.261,-1.117 0.175,-0.32 0.405,-0.564 0.69,-0.734 0.285,-0.171 0.59,-0.256 0.913,-0.256 0.333,0 0.643,0.083 0.933,0.249 0.289,0.166 0.519,0.405 0.69,0.715 0.17,0.311 0.255,0.684 0.255,1.118 C 0.255,-0.684 0.17,-0.312 0,0 m -4.886,0.812 c 0.285,0.553 0.675,0.979 1.169,1.276 0.493,0.299 1.043,0.447 1.647,0.447 0.461,0 0.899,-0.1 1.316,-0.3 0.418,-0.2 0.749,-0.466 0.996,-0.798 V 4.796 H 2.057 V -4.656 H 0.242 v 1.047 c -0.221,-0.349 -0.532,-0.63 -0.932,-0.843 -0.4,-0.213 -0.865,-0.319 -1.393,-0.319 -0.596,0 -1.141,0.153 -1.634,0.459 -0.494,0.307 -0.884,0.739 -1.169,1.297 -0.286,0.557 -0.428,1.199 -0.428,1.922 0,0.716 0.142,1.35 0.428,1.905"
               style="fill:#1226aa;fill-opacity:1;fill-rule:nonzero;stroke:none"
               id="path984" />
          </g>
          <path
             d="m 332.232,210.647 h -1.788 v 7.077 h 1.788 z m -1.667,8.22 c -0.209,0.199 -0.313,0.448 -0.313,0.747 0,0.298 0.104,0.547 0.313,0.747 0.209,0.201 0.47,0.3 0.786,0.3 0.315,0 0.577,-0.099 0.786,-0.3 0.208,-0.2 0.312,-0.449 0.312,-0.747 0,-0.299 -0.104,-0.548 -0.312,-0.747 -0.209,-0.201 -0.471,-0.301 -0.786,-0.301 -0.316,0 -0.577,0.1 -0.786,0.301"
             style="fill:#1226aa;fill-opacity:1;fill-rule:nonzero;stroke:none"
             id="path986" />
          <g
             id="g988"
             transform="translate(335.6299,212.1153)">
            <path
               d="m 0,0 h 3.156 v -1.469 h -5.187 v 1.444 L 1.061,4.139 H -2.018 V 5.608 H 3.118 V 4.165 Z"
               style="fill:#1226aa;fill-opacity:1;fill-rule:nonzero;stroke:none"
               id="path990" />
          </g>
          <g
             id="g992"
             transform="translate(345.0191,215.3028)">
            <path
               d="m 0,0 c -0.17,0.311 -0.401,0.549 -0.69,0.715 -0.289,0.166 -0.6,0.249 -0.933,0.249 -0.332,0 -0.638,-0.08 -0.919,-0.242 C -2.823,0.56 -3.051,0.323 -3.226,0.013 -3.4,-0.299 -3.487,-0.667 -3.487,-1.093 c 0,-0.425 0.087,-0.798 0.261,-1.117 0.175,-0.32 0.405,-0.564 0.69,-0.734 0.285,-0.171 0.59,-0.256 0.913,-0.256 0.333,0 0.644,0.083 0.933,0.249 0.289,0.166 0.52,0.405 0.69,0.715 0.17,0.311 0.255,0.684 0.255,1.118 C 0.255,-0.684 0.17,-0.312 0,0 m -4.886,0.812 c 0.285,0.553 0.673,0.979 1.162,1.276 0.49,0.299 1.037,0.447 1.641,0.447 0.528,0 0.991,-0.106 1.387,-0.319 C -0.3,2.003 0.017,1.735 0.255,1.412 V 2.421 H 2.057 V -4.656 H 0.255 v 1.034 c -0.23,-0.332 -0.547,-0.606 -0.951,-0.824 -0.405,-0.217 -0.871,-0.325 -1.399,-0.325 -0.596,0 -1.139,0.153 -1.629,0.459 -0.489,0.307 -0.877,0.739 -1.162,1.297 -0.286,0.557 -0.428,1.199 -0.428,1.922 0,0.716 0.142,1.35 0.428,1.905"
               style="fill:#1226aa;fill-opacity:1;fill-rule:nonzero;stroke:none"
               id="path994" />
          </g>
          <g
             id="g996"
             transform="translate(348.9346,218.8667)">
            <path
               d="m 0,0 c -0.209,0.2 -0.313,0.449 -0.313,0.748 0,0.297 0.104,0.546 0.313,0.747 0.208,0.2 0.475,0.299 0.798,0.299 0.315,0 0.575,-0.099 0.78,-0.299 C 1.782,1.294 1.884,1.045 1.884,0.748 1.884,0.449 1.782,0.2 1.578,0 1.373,-0.201 1.113,-0.301 0.798,-0.301 0.475,-0.301 0.208,-0.201 0,0 m 1.679,-9.382 c 0,-0.784 -0.194,-1.349 -0.581,-1.693 -0.388,-0.345 -0.943,-0.518 -1.667,-0.518 h -0.792 v 1.52 h 0.511 c 0.273,0 0.464,0.053 0.575,0.16 0.11,0.106 0.166,0.279 0.166,0.518 v 8.252 h 1.788 z"
               style="fill:#1226aa;fill-opacity:1;fill-rule:nonzero;stroke:none"
               id="path998" />
          </g>
          <g
             id="g1000"
             transform="translate(357.104,214.8492)">
            <path
               d="M 0,0 C -0.009,0.46 -0.175,0.828 -0.499,1.104 -0.822,1.382 -1.218,1.52 -1.687,1.52 -2.129,1.52 -2.502,1.386 -2.805,1.118 -3.106,0.85 -3.292,0.477 -3.359,0 Z m 1.801,-1.201 h -5.174 c 0.043,-0.511 0.222,-0.911 0.537,-1.201 0.315,-0.289 0.703,-0.434 1.162,-0.434 0.665,0 1.137,0.285 1.418,0.856 H 1.673 C 1.469,-2.662 1.077,-3.221 0.498,-3.66 c -0.579,-0.439 -1.29,-0.658 -2.134,-0.658 -0.681,0 -1.292,0.151 -1.832,0.454 -0.541,0.302 -0.963,0.73 -1.265,1.283 -0.303,0.554 -0.454,1.192 -0.454,1.916 0,0.733 0.149,1.376 0.448,1.93 0.297,0.553 0.715,0.979 1.252,1.277 0.536,0.298 1.154,0.447 1.851,0.447 0.674,0 1.276,-0.145 1.808,-0.435 0.532,-0.288 0.945,-0.7 1.24,-1.232 0.294,-0.532 0.441,-1.143 0.441,-1.833 0,-0.256 -0.018,-0.486 -0.052,-0.69"
               style="fill:#1226aa;fill-opacity:1;fill-rule:nonzero;stroke:none"
               id="path1002" />
          </g>
          <g
             id="g1004"
             transform="translate(364.4488,210.8443)">
            <path
               d="M 0,0 C -0.46,0.209 -0.824,0.492 -1.093,0.85 -1.36,1.207 -1.507,1.603 -1.534,2.038 H 0.268 C 0.302,1.765 0.437,1.54 0.671,1.361 0.905,1.182 1.196,1.093 1.546,1.093 c 0.34,0 0.606,0.067 0.798,0.204 0.192,0.136 0.287,0.31 0.287,0.524 0,0.229 -0.117,0.402 -0.351,0.516 -0.234,0.116 -0.607,0.241 -1.118,0.378 -0.528,0.128 -0.96,0.26 -1.296,0.396 -0.337,0.136 -0.626,0.345 -0.869,0.626 -0.243,0.281 -0.364,0.659 -0.364,1.137 0,0.391 0.113,0.749 0.339,1.072 0.225,0.325 0.549,0.579 0.97,0.767 C 0.364,6.9 0.86,6.994 1.431,6.994 2.274,6.994 2.946,6.783 3.449,6.362 3.952,5.94 4.228,5.372 4.279,4.656 H 2.567 C 2.542,4.937 2.425,5.161 2.216,5.327 2.007,5.493 1.729,5.576 1.38,5.576 1.056,5.576 0.807,5.516 0.632,5.397 0.457,5.278 0.371,5.112 0.371,4.899 0.371,4.661 0.49,4.48 0.728,4.356 0.966,4.233 1.337,4.106 1.839,3.979 2.35,3.852 2.771,3.719 3.104,3.583 3.436,3.447 3.724,3.236 3.966,2.951 4.209,2.666 4.334,2.289 4.343,1.821 4.343,1.412 4.23,1.046 4.005,0.722 3.778,0.398 3.455,0.145 3.034,-0.038 2.612,-0.222 2.121,-0.313 1.559,-0.313 0.979,-0.313 0.459,-0.209 0,0"
               style="fill:#1226aa;fill-opacity:1;fill-rule:nonzero;stroke:none"
               id="path1006" />
          </g>
          <path
             d="m 372.049,210.647 h -1.788 v 7.077 h 1.788 z m -1.667,8.22 c -0.209,0.199 -0.313,0.448 -0.313,0.747 0,0.298 0.104,0.547 0.313,0.747 0.209,0.201 0.47,0.3 0.786,0.3 0.314,0 0.577,-0.099 0.786,-0.3 0.208,-0.2 0.312,-0.449 0.312,-0.747 0,-0.299 -0.104,-0.548 -0.312,-0.747 -0.209,-0.201 -0.472,-0.301 -0.786,-0.301 -0.316,0 -0.577,0.1 -0.786,0.301"
             style="fill:#1226aa;fill-opacity:1;fill-rule:nonzero;stroke:none"
             id="path1008" />
          <g
             id="g1010"
             transform="translate(379.7774,217.0274)">
            <path
               d="m 0,0 c 0.52,-0.533 0.78,-1.275 0.78,-2.229 v -4.152 h -1.789 v 3.909 c 0,0.562 -0.14,0.994 -0.422,1.297 -0.281,0.301 -0.663,0.453 -1.15,0.453 -0.493,0 -0.882,-0.152 -1.168,-0.453 -0.285,-0.303 -0.428,-0.735 -0.428,-1.297 v -3.909 h -1.788 v 7.077 h 1.788 v -0.881 c 0.239,0.306 0.543,0.547 0.914,0.722 0.37,0.173 0.776,0.261 1.22,0.261 C -1.2,0.798 -0.519,0.532 0,0"
               style="fill:#1226aa;fill-opacity:1;fill-rule:nonzero;stroke:none"
               id="path1012" />
          </g>
          <path
             d="m 387.084,210.647 h -1.788 v 9.453 h 1.788 z"
             style="fill:#1226aa;fill-opacity:1;fill-rule:nonzero;stroke:none"
             id="path1014" />
          <path
             d="m 390.712,210.647 h -1.788 v 7.077 h 1.788 z m 0.498,8.916 -2.938,-1.342 v 1.278 l 2.938,1.52 z"
             style="fill:#1226aa;fill-opacity:1;fill-rule:nonzero;stroke:none"
             id="path1016" />
          <g
             id="g1018"
             transform="translate(403.4414,217.0274)">
            <path
               d="M 0,0 C 0.533,-0.533 0.798,-1.275 0.798,-2.229 V -6.381 H -0.99 v 3.909 c 0,0.554 -0.14,0.977 -0.421,1.271 -0.281,0.294 -0.665,0.441 -1.15,0.441 -0.486,0 -0.871,-0.147 -1.156,-0.441 -0.286,-0.294 -0.428,-0.717 -0.428,-1.271 v -3.909 h -1.789 v 3.909 c 0,0.554 -0.14,0.977 -0.421,1.271 -0.281,0.294 -0.664,0.441 -1.15,0.441 -0.494,0 -0.883,-0.147 -1.169,-0.441 -0.285,-0.294 -0.428,-0.717 -0.428,-1.271 v -3.909 h -1.788 v 7.077 h 1.788 V -0.16 c 0.23,0.298 0.527,0.532 0.889,0.703 0.361,0.17 0.759,0.255 1.194,0.255 0.553,0 1.047,-0.117 1.481,-0.351 0.435,-0.235 0.771,-0.569 1.01,-1.003 0.23,0.409 0.563,0.737 1.003,0.984 0.438,0.247 0.913,0.37 1.424,0.37 C -1.232,0.798 -0.532,0.532 0,0"
               style="fill:#1226aa;fill-opacity:1;fill-rule:nonzero;stroke:none"
               id="path1020" />
          </g>
          <path
             d="m 407.727,210.647 h -1.788 v 7.077 h 1.788 z m -1.667,8.22 c -0.209,0.199 -0.313,0.448 -0.313,0.747 0,0.298 0.104,0.547 0.313,0.747 0.209,0.201 0.47,0.3 0.785,0.3 0.315,0 0.577,-0.099 0.786,-0.3 0.208,-0.2 0.313,-0.449 0.313,-0.747 0,-0.299 -0.105,-0.548 -0.313,-0.747 -0.209,-0.201 -0.471,-0.301 -0.786,-0.301 -0.315,0 -0.576,0.1 -0.785,0.301"
             style="fill:#1226aa;fill-opacity:1;fill-rule:nonzero;stroke:none"
             id="path1022" />
          <g
             id="g1024"
             transform="translate(411.5718,216.2544)">
            <path
               d="m 0,0 v -3.423 c 0,-0.24 0.058,-0.412 0.173,-0.518 0.115,-0.107 0.308,-0.16 0.581,-0.16 h 0.83 V -5.608 H 0.46 c -1.507,0 -2.261,0.732 -2.261,2.197 V 0 h -0.843 v 1.469 h 0.843 v 1.75 H 0 V 1.469 H 1.584 V 0 Z"
               style="fill:#1226aa;fill-opacity:1;fill-rule:nonzero;stroke:none"
               id="path1026" />
          </g>
          <g
             id="g1028"
             transform="translate(419.1729,214.8492)">
            <path
               d="M 0,0 C -0.009,0.46 -0.175,0.828 -0.499,1.104 -0.822,1.382 -1.218,1.52 -1.687,1.52 -2.129,1.52 -2.502,1.386 -2.805,1.118 -3.106,0.85 -3.292,0.477 -3.359,0 Z m 1.801,-1.201 h -5.174 c 0.043,-0.511 0.222,-0.911 0.537,-1.201 0.315,-0.289 0.703,-0.434 1.162,-0.434 0.665,0 1.137,0.285 1.418,0.856 H 1.673 C 1.469,-2.662 1.077,-3.221 0.498,-3.66 c -0.579,-0.439 -1.29,-0.658 -2.134,-0.658 -0.681,0 -1.292,0.151 -1.832,0.454 -0.541,0.302 -0.963,0.73 -1.265,1.283 -0.303,0.554 -0.454,1.192 -0.454,1.916 0,0.733 0.149,1.376 0.448,1.93 0.297,0.553 0.715,0.979 1.252,1.277 0.536,0.298 1.154,0.447 1.851,0.447 0.674,0 1.276,-0.145 1.808,-0.435 0.532,-0.288 0.945,-0.7 1.24,-1.232 0.294,-0.532 0.441,-1.143 0.441,-1.833 0,-0.256 -0.018,-0.486 -0.052,-0.69"
               style="fill:#1226aa;fill-opacity:1;fill-rule:nonzero;stroke:none"
               id="path1030" />
          </g>
          <g
             id="g1032"
             transform="translate(423.4771,210.8443)">
            <path
               d="M 0,0 C -0.459,0.209 -0.824,0.492 -1.092,0.85 -1.36,1.207 -1.507,1.603 -1.533,2.038 H 0.269 C 0.303,1.765 0.437,1.54 0.671,1.361 0.905,1.182 1.197,1.093 1.546,1.093 c 0.341,0 0.607,0.067 0.798,0.204 0.192,0.136 0.287,0.31 0.287,0.524 0,0.229 -0.116,0.402 -0.351,0.516 -0.234,0.116 -0.606,0.241 -1.117,0.378 -0.529,0.128 -0.96,0.26 -1.297,0.396 -0.337,0.136 -0.626,0.345 -0.869,0.626 -0.243,0.281 -0.363,0.659 -0.363,1.137 0,0.391 0.112,0.749 0.338,1.072 0.225,0.325 0.549,0.579 0.971,0.767 C 0.365,6.9 0.86,6.994 1.431,6.994 2.274,6.994 2.947,6.783 3.449,6.362 3.952,5.94 4.228,5.372 4.28,4.656 H 2.568 C 2.542,4.937 2.425,5.161 2.216,5.327 2.007,5.493 1.729,5.576 1.38,5.576 1.056,5.576 0.807,5.516 0.632,5.397 0.458,5.278 0.371,5.112 0.371,4.899 0.371,4.661 0.49,4.48 0.728,4.356 0.966,4.233 1.337,4.106 1.84,3.979 2.35,3.852 2.772,3.719 3.104,3.583 3.437,3.447 3.724,3.236 3.966,2.951 4.209,2.666 4.334,2.289 4.343,1.821 4.343,1.412 4.23,1.046 4.005,0.722 3.779,0.398 3.456,0.145 3.034,-0.038 2.612,-0.222 2.121,-0.313 1.559,-0.313 0.979,-0.313 0.46,-0.209 0,0"
               style="fill:#1226aa;fill-opacity:1;fill-rule:nonzero;stroke:none"
               id="path1034" />
          </g>
          <g
             id="g1036"
             transform="translate(429.2827,210.857)">
            <path
               d="m 0,0 c -0.208,0.2 -0.312,0.449 -0.312,0.747 0,0.299 0.104,0.547 0.312,0.748 0.209,0.199 0.475,0.3 0.799,0.3 0.314,0 0.575,-0.101 0.779,-0.3 C 1.782,1.294 1.884,1.046 1.884,0.747 1.884,0.449 1.782,0.2 1.578,0 1.374,-0.2 1.113,-0.3 0.799,-0.3 0.475,-0.3 0.209,-0.2 0,0"
               style="fill:#1226aa;fill-opacity:1;fill-rule:nonzero;stroke:none"
               id="path1038" />
          </g>
          <g
             id="g1040"
             transform="translate(166.9307,255.541)">
            <path
               d="m 0,0 c 1.325,2.483 3.207,4.418 5.645,5.805 2.438,1.386 5.241,2.08 8.411,2.08 4.023,0 7.405,-1.074 10.148,-3.223 2.743,-2.148 4.51,-5.067 5.303,-8.754 h -9.646 c -0.579,1.219 -1.379,2.149 -2.4,2.789 -1.021,0.64 -2.201,0.96 -3.542,0.96 -2.073,0 -3.726,-0.74 -4.96,-2.217 -1.234,-1.479 -1.851,-3.452 -1.851,-5.92 0,-2.499 0.617,-4.488 1.851,-5.965 1.234,-1.479 2.887,-2.217 4.96,-2.217 1.341,0 2.521,0.32 3.542,0.96 1.021,0.639 1.821,1.569 2.4,2.788 h 9.646 c -0.793,-3.688 -2.56,-6.605 -5.303,-8.753 -2.743,-2.149 -6.125,-3.224 -10.148,-3.224 -3.17,0 -5.973,0.693 -8.411,2.08 -2.438,1.386 -4.32,3.321 -5.645,5.806 -1.326,2.484 -1.989,5.325 -1.989,8.525 0,3.169 0.663,5.996 1.989,8.48"
               style="fill:#1226aa;fill-opacity:1;fill-rule:nonzero;stroke:none"
               id="path1042" />
          </g>
          <path
             d="m 209.648,230.879 h -8.959 v 33.827 h 8.959 z"
             style="fill:#1226aa;fill-opacity:1;fill-rule:nonzero;stroke:none"
             id="path1044" />
          <g
             id="g1046"
             transform="translate(230.4239,247.6094)">
            <path
               d="m 0,0 c -0.899,0.944 -2.004,1.417 -3.314,1.417 -1.341,0 -2.454,-0.465 -3.336,-1.394 -0.885,-0.93 -1.327,-2.232 -1.327,-3.909 0,-1.645 0.442,-2.948 1.327,-3.908 0.882,-0.96 1.995,-1.44 3.336,-1.44 1.31,0 2.415,0.472 3.314,1.417 0.899,0.944 1.349,2.255 1.349,3.931 C 1.349,-2.24 0.899,-0.945 0,0 m -15.679,3.063 c 0.96,1.981 2.27,3.503 3.931,4.571 1.661,1.066 3.512,1.6 5.554,1.6 1.767,0 3.291,-0.351 4.571,-1.051 1.28,-0.702 2.27,-1.646 2.972,-2.834 v 3.565 h 8.96 V -16.73 h -8.96 v 3.565 c -0.702,-1.189 -1.699,-2.134 -2.994,-2.834 -1.296,-0.701 -2.812,-1.051 -4.549,-1.051 -2.042,0 -3.893,0.532 -5.554,1.6 -1.661,1.066 -2.971,2.597 -3.931,4.594 -0.96,1.995 -1.44,4.319 -1.44,6.97 0,2.652 0.48,4.968 1.44,6.949"
               style="fill:#1226aa;fill-opacity:1;fill-rule:nonzero;stroke:none"
               id="path1048" />
          </g>
          <g
             id="g1050"
             transform="translate(250.583,231.7246)">
            <path
               d="M 0,0 C -1.814,0.777 -3.246,1.844 -4.297,3.2 -5.349,4.555 -5.936,6.087 -6.058,7.794 H 2.628 C 2.75,6.971 3.13,6.331 3.771,5.874 4.411,5.417 5.203,5.188 6.148,5.188 c 0.731,0 1.31,0.153 1.737,0.458 0.427,0.304 0.64,0.7 0.64,1.188 0,0.64 -0.351,1.112 -1.051,1.416 -0.702,0.306 -1.86,0.641 -3.475,1.007 -1.829,0.366 -3.352,0.777 -4.571,1.234 -1.22,0.457 -2.279,1.203 -3.177,2.239 -0.899,1.037 -1.349,2.439 -1.349,4.206 0,1.524 0.412,2.903 1.235,4.137 0.822,1.235 2.034,2.218 3.634,2.949 1.6,0.731 3.527,1.097 5.783,1.097 3.351,0 5.988,-0.823 7.907,-2.468 1.92,-1.646 3.033,-3.811 3.337,-6.492 H 8.708 C 8.555,16.982 8.197,17.614 7.633,18.057 7.069,18.498 6.315,18.719 5.371,18.719 4.639,18.719 4.083,18.582 3.702,18.308 3.321,18.034 3.13,17.652 3.13,17.165 c 0,-0.61 0.35,-1.074 1.052,-1.394 0.701,-0.32 1.828,-0.648 3.383,-0.983 1.858,-0.396 3.406,-0.839 4.64,-1.326 1.234,-0.488 2.316,-1.272 3.245,-2.354 0.929,-1.082 1.395,-2.552 1.395,-4.411 0,-1.494 -0.435,-2.834 -1.303,-4.023 C 14.673,1.486 13.439,0.549 11.839,-0.137 10.239,-0.822 8.356,-1.166 6.194,-1.166 3.877,-1.166 1.812,-0.777 0,0"
               style="fill:#1226aa;fill-opacity:1;fill-rule:nonzero;stroke:none"
               id="path1052" />
          </g>
          <g
             id="g1054"
             transform="translate(276.5469,231.7246)">
            <path
               d="M 0,0 C -1.813,0.777 -3.246,1.844 -4.297,3.2 -5.349,4.555 -5.936,6.087 -6.058,7.794 H 2.628 C 2.75,6.971 3.13,6.331 3.771,5.874 4.411,5.417 5.203,5.188 6.148,5.188 c 0.731,0 1.31,0.153 1.737,0.458 0.427,0.304 0.64,0.7 0.64,1.188 0,0.64 -0.351,1.112 -1.051,1.416 -0.702,0.306 -1.86,0.641 -3.475,1.007 -1.829,0.366 -3.352,0.777 -4.571,1.234 -1.22,0.457 -2.279,1.203 -3.177,2.239 -0.899,1.037 -1.349,2.439 -1.349,4.206 0,1.524 0.412,2.903 1.235,4.137 0.822,1.235 2.034,2.218 3.634,2.949 1.6,0.731 3.527,1.097 5.783,1.097 3.351,0 5.988,-0.823 7.907,-2.468 1.92,-1.646 3.033,-3.811 3.337,-6.492 H 8.708 C 8.555,16.982 8.197,17.614 7.633,18.057 7.069,18.498 6.315,18.719 5.371,18.719 4.639,18.719 4.083,18.582 3.702,18.308 3.321,18.034 3.13,17.652 3.13,17.165 c 0,-0.61 0.351,-1.074 1.052,-1.394 0.701,-0.32 1.828,-0.648 3.383,-0.983 1.858,-0.396 3.406,-0.839 4.64,-1.326 1.234,-0.488 2.316,-1.272 3.245,-2.354 0.929,-1.082 1.395,-2.552 1.395,-4.411 0,-1.494 -0.435,-2.834 -1.303,-4.023 C 14.673,1.486 13.439,0.549 11.839,-0.137 10.239,-0.822 8.357,-1.166 6.194,-1.166 3.877,-1.166 1.812,-0.777 0,0"
               style="fill:#1226aa;fill-opacity:1;fill-rule:nonzero;stroke:none"
               id="path1056" />
          </g>
          <g
             id="g1058"
             transform="translate(321.6182,253.8037)">
            <path
               d="m 0,0 c 1.721,-1.966 2.582,-4.625 2.582,-7.977 v -14.948 h -8.959 v 13.76 c 0,1.462 -0.381,2.612 -1.143,3.451 -0.762,0.838 -1.782,1.257 -3.063,1.257 -1.341,0 -2.393,-0.419 -3.154,-1.257 -0.762,-0.839 -1.142,-1.989 -1.142,-3.451 v -13.76 h -8.96 v 33.827 h 8.96 V -0.937 c 0.792,1.158 1.866,2.095 3.222,2.811 1.356,0.716 2.918,1.074 4.686,1.074 C -4.046,2.948 -1.722,1.965 0,0"
               style="fill:#e54e62;fill-opacity:1;fill-rule:nonzero;stroke:none"
               id="path1060" />
          </g>
          <g
             id="g1062"
             transform="translate(344.1992,239.7242)">
            <path
               d="M 0,0 C 0.837,0.929 1.257,2.263 1.257,4 1.257,5.737 0.837,7.063 0,7.977 -0.839,8.892 -1.868,9.348 -3.086,9.348 -4.305,9.348 -5.326,8.892 -6.149,7.977 -6.972,7.063 -7.383,5.737 -7.383,4 c 0,-1.768 0.396,-3.109 1.189,-4.023 0.791,-0.914 1.813,-1.371 3.062,-1.371 1.249,0 2.293,0.464 3.132,1.394 m -10.011,-7.565 c -2.027,1.066 -3.619,2.59 -4.778,4.571 -1.158,1.98 -1.736,4.312 -1.736,6.994 0,2.651 0.586,4.967 1.759,6.948 1.173,1.981 2.773,3.504 4.8,4.571 2.027,1.066 4.32,1.6 6.88,1.6 2.56,0 4.853,-0.534 6.879,-1.6 2.027,-1.067 3.627,-2.59 4.8,-4.571 C 9.766,8.967 10.354,6.651 10.354,4 10.354,1.349 9.766,-0.976 8.593,-2.971 7.42,-4.968 5.812,-6.499 3.771,-7.565 c -2.042,-1.067 -4.343,-1.6 -6.903,-1.6 -2.559,0 -4.853,0.533 -6.879,1.6"
               style="fill:#e54e62;fill-opacity:1;fill-rule:nonzero;stroke:none"
               id="path1064" />
          </g>
          <g
             id="g1066"
             transform="translate(399.3277,253.8267)">
            <path
               d="m 0,0 c 1.843,-1.951 2.765,-4.617 2.765,-8 v -14.948 h -8.959 v 13.76 c 0,1.371 -0.382,2.438 -1.143,3.2 -0.762,0.761 -1.799,1.142 -3.109,1.142 -1.31,0 -2.346,-0.381 -3.108,-1.142 -0.762,-0.762 -1.143,-1.829 -1.143,-3.2 v -13.76 h -8.96 v 13.76 c 0,1.371 -0.373,2.438 -1.119,3.2 -0.747,0.761 -1.776,1.142 -3.086,1.142 -1.342,0 -2.393,-0.381 -3.154,-1.142 -0.763,-0.762 -1.143,-1.829 -1.143,-3.2 v -13.76 h -8.96 V 2.696 h 8.96 v -3.382 c 0.792,1.097 1.821,1.973 3.086,2.628 1.263,0.655 2.72,0.983 4.365,0.983 1.89,0 3.573,-0.411 5.051,-1.234 1.478,-0.822 2.644,-1.982 3.497,-3.474 0.914,1.401 2.118,2.537 3.611,3.405 1.493,0.869 3.139,1.303 4.938,1.303 C -4.381,2.925 -1.845,1.949 0,0"
               style="fill:#e54e62;fill-opacity:1;fill-rule:nonzero;stroke:none"
               id="path1068" />
          </g>
          <g
             id="g1070"
             transform="translate(422.3423,246.2383)">
            <path
               d="M 0,0 C 0,1.097 -0.366,1.958 -1.097,2.583 -1.829,3.207 -2.742,3.52 -3.84,3.52 -4.937,3.52 -5.836,3.223 -6.537,2.628 -7.238,2.034 -7.695,1.158 -7.908,0 Z M 9.006,-4.343 H -7.953 c 0.091,-1.402 0.479,-2.446 1.165,-3.131 0.685,-0.686 1.561,-1.029 2.628,-1.029 1.493,0 2.56,0.67 3.2,2.012 h 9.554 c -0.397,-1.768 -1.166,-3.345 -2.308,-4.731 -1.143,-1.387 -2.583,-2.477 -4.32,-3.269 -1.737,-0.793 -3.657,-1.188 -5.759,-1.188 -2.531,0 -4.778,0.533 -6.743,1.6 -1.966,1.066 -3.505,2.59 -4.617,4.571 -1.113,1.98 -1.669,4.312 -1.669,6.993 0,2.682 0.549,5.006 1.646,6.972 1.097,1.966 2.629,3.48 4.593,4.548 1.967,1.066 4.229,1.6 6.79,1.6 2.528,0 4.768,-0.519 6.719,-1.554 C 4.875,8.015 6.4,6.529 7.497,4.594 8.594,2.658 9.143,0.38 9.143,-2.24 c 0,-0.702 -0.046,-1.402 -0.137,-2.103"
               style="fill:#e54e62;fill-opacity:1;fill-rule:nonzero;stroke:none"
               id="path1072" />
          </g>
          <path
             d="M 93.499,210.805 H 72.038 v 73.609 h 21.461 z"
             style="fill:#e54e62;fill-opacity:1;fill-rule:nonzero;stroke:none"
             id="path1074" />
          <path
             d="m 143.562,210.805 h -21.46 v 73.609 h 21.46 z"
             style="fill:#1226aa;fill-opacity:1;fill-rule:nonzero;stroke:none"
             id="path1076" />
          <path
             d="M 119.008,236.407 H 96.602 v 22.405 h 22.406 z"
             style="fill:#1226aa;fill-opacity:1;fill-rule:nonzero;stroke:none"
             id="path1078" />
          <path
             d="M 119.008,210.805 H 96.602 v 22.405 h 22.406 z"
             style="fill:#e54e62;fill-opacity:1;fill-rule:nonzero;stroke:none"
             id="path1080" />
          <path
             d="M 118.998,262.009 H 96.593 v 22.405 h 22.405 z"
             style="fill:#e54e62;fill-opacity:1;fill-rule:nonzero;stroke:none"
             id="path1082" />
        </g>
      </g>
    </g>
  </g>
</svg>
