<?xml version="1.0" encoding="UTF-8" standalone="no"?>
<!-- Created with Inkscape (http://www.inkscape.org/) -->

<svg
   width="128.0162mm"
   height="27.271769mm"
   viewBox="0 0 128.0162 27.271768"
   version="1.1"
   id="svg5"
   inkscape:version="1.1.1 (3bf5ae0d25, 2021-09-20)"
   sodipodi:docname="logo-text-on-dark.svg"
   xmlns:inkscape="http://www.inkscape.org/namespaces/inkscape"
   xmlns:sodipodi="http://sodipodi.sourceforge.net/DTD/sodipodi-0.dtd"
   xmlns="http://www.w3.org/2000/svg"
   xmlns:svg="http://www.w3.org/2000/svg">
  <sodipodi:namedview
     id="namedview7"
     pagecolor="#505050"
     bordercolor="#ffffff"
     borderopacity="1"
     inkscape:pageshadow="0"
     inkscape:pageopacity="0"
     inkscape:pagecheckerboard="1"
     inkscape:document-units="mm"
     showgrid="false"
     inkscape:zoom="0.74118967"
     inkscape:cx="564.6328"
     inkscape:cy="227.33722"
     inkscape:current-layer="g1583" />
  <defs
     id="defs2">
    <clipPath
       clipPathUnits="userSpaceOnUse"
       id="clipPath842">
      <path
         d="M 0,629.008 H 809.008 V 0 H 0 Z"
         id="path840" />
    </clipPath>
    <clipPath
       clipPathUnits="userSpaceOnUse"
       id="clipPath1597">
      <path
         d="M 0,629.008 H 809.008 V 0 H 0 Z"
         id="path1595" />
    </clipPath>
  </defs>
  <g
     inkscape:label="Capa 1"
     inkscape:groupmode="layer"
     id="layer1"
     transform="translate(-35.404487,-202.31099)">
    <g
       id="g830"
       inkscape:label="Classhome marca"
       transform="matrix(0.35277777,0,0,-0.35277777,-22.905205,279.89764)">
      <g
         id="g836">
        <g
           id="g1583"
           inkscape:label="Classhome marca"
           transform="translate(89.20232,-68.765324)">
          <g
             id="g1591">
            <g
               id="g1593"
               clip-path="url(#clipPath1597)">
              <g
                 id="g1727"
                 transform="translate(294.9525,217.8926)">
                <path
                   d="M 0,0 -1.29,3.73 -2.58,0 Z m 0.485,-1.431 h -3.551 l -0.588,-1.698 h -1.878 l 3.207,8.928 h 2.082 L 2.963,-3.129 H 1.072 Z"
                   style="fill:#e54e62;fill-opacity:1;fill-rule:nonzero;stroke:none"
                   id="path1729" />
              </g>
              <g
                 id="g1731"
                 transform="translate(304.3861,219.4322)">
                <path
                   d="m 0,0 c -0.175,0.311 -0.405,0.547 -0.69,0.709 -0.286,0.162 -0.594,0.243 -0.926,0.243 -0.323,0 -0.629,-0.083 -0.913,-0.249 -0.285,-0.166 -0.516,-0.407 -0.691,-0.722 -0.175,-0.315 -0.261,-0.686 -0.261,-1.111 0,-0.426 0.086,-0.797 0.261,-1.111 0.175,-0.316 0.406,-0.556 0.691,-0.722 0.284,-0.167 0.59,-0.249 0.913,-0.249 0.332,0 0.64,0.085 0.926,0.255 0.285,0.17 0.515,0.413 0.69,0.728 0.174,0.315 0.261,0.689 0.261,1.124 C 0.261,-0.679 0.174,-0.311 0,0 m -2.529,2.197 c 0.403,0.218 0.866,0.326 1.385,0.326 0.605,0 1.152,-0.149 1.642,-0.447 C 0.987,1.778 1.375,1.354 1.66,0.805 1.945,0.256 2.088,-0.381 2.088,-1.105 2.088,-1.829 1.945,-2.47 1.66,-3.027 1.375,-3.585 0.987,-4.018 0.498,-4.324 c -0.49,-0.306 -1.037,-0.46 -1.642,-0.46 -0.519,0 -0.977,0.107 -1.373,0.32 -0.396,0.212 -0.717,0.481 -0.964,0.805 V -8.042 H -5.27 v 10.45 h 1.789 V 1.387 c 0.229,0.322 0.546,0.593 0.952,0.81"
                   style="fill:#e54e62;fill-opacity:1;fill-rule:nonzero;stroke:none"
                   id="path1733" />
              </g>
              <g
                 id="g1735"
                 transform="translate(310.4662,221.6231)">
                <path
                   d="M 0,0 C 0.37,0.213 0.794,0.319 1.271,0.319 V -1.559 H 0.798 c -0.562,0 -0.985,-0.131 -1.271,-0.395 C -0.758,-2.219 -0.9,-2.678 -0.9,-3.334 V -6.859 H -2.688 V 0.217 H -0.9 V -0.881 C -0.671,-0.507 -0.37,-0.213 0,0"
                   style="fill:#e54e62;fill-opacity:1;fill-rule:nonzero;stroke:none"
                   id="path1737" />
              </g>
              <g
                 id="g1739"
                 transform="translate(317.6654,218.9663)">
                <path
                   d="M 0,0 C -0.009,0.459 -0.175,0.828 -0.499,1.104 -0.822,1.381 -1.219,1.52 -1.687,1.52 -2.13,1.52 -2.502,1.385 -2.805,1.118 -3.106,0.85 -3.292,0.476 -3.36,0 Z m 1.801,-1.201 h -5.174 c 0.043,-0.511 0.222,-0.911 0.536,-1.201 0.316,-0.29 0.703,-0.434 1.163,-0.434 0.664,0 1.137,0.285 1.418,0.856 H 1.673 C 1.469,-2.662 1.076,-3.221 0.497,-3.66 c -0.578,-0.439 -1.29,-0.658 -2.133,-0.658 -0.681,0 -1.292,0.151 -1.833,0.453 -0.541,0.303 -0.962,0.731 -1.264,1.284 -0.303,0.554 -0.454,1.192 -0.454,1.916 0,0.733 0.149,1.375 0.447,1.93 0.298,0.553 0.716,0.979 1.253,1.277 0.535,0.298 1.153,0.447 1.851,0.447 0.673,0 1.276,-0.145 1.808,-0.435 0.532,-0.289 0.945,-0.7 1.239,-1.232 0.294,-0.533 0.441,-1.143 0.441,-1.833 0,-0.256 -0.017,-0.486 -0.051,-0.69"
                   style="fill:#e54e62;fill-opacity:1;fill-rule:nonzero;stroke:none"
                   id="path1741" />
              </g>
              <g
                 id="g1743"
                 transform="translate(326.7845,221.1441)">
                <path
                   d="M 0,0 C 0.52,-0.533 0.78,-1.275 0.78,-2.229 V -6.38 h -1.789 v 3.908 c 0,0.562 -0.14,0.994 -0.422,1.297 -0.281,0.302 -0.664,0.453 -1.149,0.453 -0.494,0 -0.883,-0.151 -1.169,-0.453 -0.285,-0.303 -0.428,-0.735 -0.428,-1.297 V -6.38 h -1.788 v 7.076 h 1.788 v -0.881 c 0.239,0.307 0.543,0.547 0.914,0.722 0.37,0.174 0.777,0.261 1.22,0.261 C -1.2,0.798 -0.519,0.532 0,0"
                   style="fill:#e54e62;fill-opacity:1;fill-rule:nonzero;stroke:none"
                   id="path1745" />
              </g>
              <g
                 id="g1747"
                 transform="translate(334.1175,219.4195)">
                <path
                   d="m 0,0 c -0.171,0.311 -0.401,0.55 -0.69,0.715 -0.289,0.166 -0.6,0.25 -0.933,0.25 -0.332,0 -0.639,-0.081 -0.919,-0.243 -0.281,-0.162 -0.51,-0.399 -0.685,-0.709 -0.173,-0.311 -0.26,-0.679 -0.26,-1.105 0,-0.426 0.087,-0.798 0.26,-1.117 0.175,-0.32 0.406,-0.565 0.691,-0.735 0.285,-0.171 0.59,-0.256 0.913,-0.256 0.333,0 0.644,0.083 0.933,0.25 0.289,0.166 0.519,0.404 0.69,0.714 0.17,0.312 0.255,0.684 0.255,1.118 C 0.255,-0.684 0.17,-0.311 0,0 m -4.887,0.812 c 0.285,0.553 0.675,0.979 1.169,1.276 0.494,0.299 1.044,0.448 1.648,0.448 0.461,0 0.899,-0.1 1.316,-0.301 0.417,-0.2 0.749,-0.466 0.996,-0.798 v 3.36 H 2.057 V -4.656 H 0.242 v 1.048 c -0.221,-0.35 -0.532,-0.631 -0.932,-0.844 -0.4,-0.213 -0.865,-0.319 -1.393,-0.319 -0.596,0 -1.141,0.153 -1.635,0.46 -0.494,0.306 -0.884,0.738 -1.169,1.296 -0.285,0.557 -0.427,1.199 -0.427,1.923 0,0.715 0.142,1.349 0.427,1.904"
                   style="fill:#e54e62;fill-opacity:1;fill-rule:nonzero;stroke:none"
                   id="path1749" />
              </g>
              <path
                 d="m 339.712,214.764 h -1.788 v 7.077 h 1.788 z m -1.667,8.22 c -0.209,0.199 -0.312,0.449 -0.312,0.747 0,0.298 0.103,0.547 0.312,0.747 0.209,0.2 0.47,0.3 0.785,0.3 0.316,0 0.578,-0.1 0.787,-0.3 0.208,-0.2 0.313,-0.449 0.313,-0.747 0,-0.298 -0.105,-0.548 -0.313,-0.747 -0.209,-0.201 -0.471,-0.301 -0.787,-0.301 -0.315,0 -0.576,0.1 -0.785,0.301"
                 style="fill:#e54e62;fill-opacity:1;fill-rule:nonzero;stroke:none"
                 id="path1751" />
              <g
                 id="g1753"
                 transform="translate(343.1107,216.2325)">
                <path
                   d="m 0,0 h 3.155 v -1.469 h -5.186 v 1.444 l 3.092,4.164 h -3.08 V 5.608 H 3.117 V 4.165 Z"
                   style="fill:#e54e62;fill-opacity:1;fill-rule:nonzero;stroke:none"
                   id="path1755" />
              </g>
              <g
                 id="g1757"
                 transform="translate(352.4994,219.4195)">
                <path
                   d="m 0,0 c -0.171,0.311 -0.4,0.55 -0.689,0.715 -0.29,0.166 -0.601,0.25 -0.934,0.25 -0.332,0 -0.638,-0.081 -0.919,-0.243 C -2.823,0.56 -3.051,0.323 -3.226,0.013 -3.4,-0.298 -3.487,-0.666 -3.487,-1.092 c 0,-0.426 0.087,-0.798 0.261,-1.117 0.175,-0.32 0.405,-0.565 0.69,-0.735 0.285,-0.171 0.59,-0.256 0.913,-0.256 0.333,0 0.644,0.083 0.934,0.25 0.289,0.166 0.518,0.404 0.689,0.714 0.17,0.312 0.255,0.684 0.255,1.118 C 0.255,-0.684 0.17,-0.311 0,0 m -4.886,0.812 c 0.284,0.553 0.672,0.979 1.162,1.276 0.491,0.299 1.037,0.448 1.641,0.448 0.528,0 0.99,-0.107 1.387,-0.32 C -0.3,2.003 0.017,1.735 0.255,1.412 V 2.421 H 2.057 V -4.656 H 0.255 v 1.035 c -0.23,-0.332 -0.547,-0.607 -0.951,-0.824 -0.406,-0.217 -0.871,-0.326 -1.4,-0.326 -0.595,0 -1.137,0.153 -1.628,0.46 -0.49,0.306 -0.878,0.738 -1.162,1.296 -0.286,0.557 -0.428,1.199 -0.428,1.923 0,0.715 0.142,1.349 0.428,1.904"
                   style="fill:#e54e62;fill-opacity:1;fill-rule:nonzero;stroke:none"
                   id="path1759" />
              </g>
              <g
                 id="g1761"
                 transform="translate(356.4144,222.9839)">
                <path
                   d="m 0,0 c -0.209,0.199 -0.312,0.449 -0.312,0.747 0,0.298 0.103,0.547 0.312,0.747 0.209,0.2 0.476,0.3 0.798,0.3 0.315,0 0.575,-0.1 0.78,-0.3 C 1.782,1.294 1.885,1.045 1.885,0.747 1.885,0.449 1.782,0.199 1.578,0 1.373,-0.201 1.113,-0.301 0.798,-0.301 0.476,-0.301 0.209,-0.201 0,0 m 1.68,-9.383 c 0,-0.784 -0.194,-1.348 -0.581,-1.693 -0.388,-0.344 -0.944,-0.517 -1.667,-0.517 H -1.36 v 1.52 h 0.51 c 0.273,0 0.464,0.053 0.576,0.16 0.11,0.106 0.166,0.279 0.166,0.517 v 8.252 H 1.68 Z"
                   style="fill:#e54e62;fill-opacity:1;fill-rule:nonzero;stroke:none"
                   id="path1763" />
              </g>
              <g
                 id="g1765"
                 transform="translate(364.5843,218.9663)">
                <path
                   d="M 0,0 C -0.009,0.459 -0.175,0.828 -0.499,1.104 -0.822,1.381 -1.218,1.52 -1.687,1.52 -2.13,1.52 -2.502,1.385 -2.805,1.118 -3.106,0.85 -3.292,0.476 -3.359,0 Z m 1.801,-1.201 h -5.174 c 0.043,-0.511 0.222,-0.911 0.537,-1.201 0.315,-0.29 0.702,-0.434 1.162,-0.434 0.664,0 1.137,0.285 1.418,0.856 H 1.673 C 1.469,-2.662 1.076,-3.221 0.498,-3.66 c -0.579,-0.439 -1.291,-0.658 -2.134,-0.658 -0.681,0 -1.292,0.151 -1.833,0.453 -0.54,0.303 -0.962,0.731 -1.264,1.284 -0.303,0.554 -0.454,1.192 -0.454,1.916 0,0.733 0.149,1.375 0.448,1.93 0.298,0.553 0.715,0.979 1.252,1.277 0.536,0.298 1.153,0.447 1.851,0.447 0.673,0 1.277,-0.145 1.808,-0.435 0.532,-0.289 0.945,-0.7 1.239,-1.232 0.294,-0.533 0.442,-1.143 0.442,-1.833 0,-0.256 -0.018,-0.486 -0.052,-0.69"
                   style="fill:#e54e62;fill-opacity:1;fill-rule:nonzero;stroke:none"
                   id="path1767" />
              </g>
              <g
                 id="g1769"
                 transform="translate(371.929,214.9615)">
                <path
                   d="M 0,0 C -0.46,0.208 -0.824,0.492 -1.093,0.85 -1.36,1.207 -1.508,1.603 -1.533,2.037 H 0.268 C 0.302,1.765 0.437,1.54 0.671,1.361 0.905,1.181 1.196,1.092 1.546,1.092 1.887,1.092 2.152,1.16 2.344,1.296 2.536,1.433 2.631,1.607 2.631,1.82 2.631,2.05 2.515,2.222 2.28,2.337 2.046,2.453 1.674,2.578 1.162,2.714 0.634,2.842 0.202,2.974 -0.135,3.111 -0.471,3.247 -0.76,3.456 -1.003,3.736 c -0.243,0.282 -0.364,0.66 -0.364,1.138 0,0.391 0.113,0.748 0.339,1.072 0.225,0.324 0.549,0.579 0.97,0.767 C 0.364,6.9 0.859,6.994 1.431,6.994 2.273,6.994 2.946,6.783 3.449,6.361 3.951,5.94 4.228,5.371 4.279,4.656 H 2.567 C 2.542,4.937 2.425,5.161 2.216,5.327 2.007,5.493 1.729,5.576 1.38,5.576 1.056,5.576 0.807,5.516 0.632,5.396 0.457,5.277 0.37,5.112 0.37,4.899 0.37,4.661 0.489,4.479 0.728,4.356 0.966,4.233 1.337,4.106 1.84,3.979 2.35,3.852 2.771,3.719 3.104,3.583 3.437,3.447 3.724,3.236 3.966,2.951 4.209,2.666 4.334,2.288 4.343,1.82 4.343,1.412 4.23,1.045 4.005,0.722 3.778,0.397 3.455,0.145 3.033,-0.038 2.612,-0.222 2.12,-0.313 1.559,-0.313 0.979,-0.313 0.459,-0.209 0,0"
                   style="fill:#e54e62;fill-opacity:1;fill-rule:nonzero;stroke:none"
                   id="path1771" />
              </g>
              <path
                 d="m 379.529,214.764 h -1.788 v 7.077 h 1.788 z m -1.666,8.22 c -0.209,0.199 -0.314,0.449 -0.314,0.747 0,0.298 0.105,0.547 0.314,0.747 0.209,0.2 0.469,0.3 0.785,0.3 0.315,0 0.577,-0.1 0.786,-0.3 0.208,-0.2 0.312,-0.449 0.312,-0.747 0,-0.298 -0.104,-0.548 -0.312,-0.747 -0.209,-0.201 -0.471,-0.301 -0.786,-0.301 -0.316,0 -0.576,0.1 -0.785,0.301"
                 style="fill:#e54e62;fill-opacity:1;fill-rule:nonzero;stroke:none"
                 id="path1773" />
              <g
                 id="g1775"
                 transform="translate(387.2581,221.1441)">
                <path
                   d="M 0,0 C 0.519,-0.533 0.779,-1.275 0.779,-2.229 V -6.38 H -1.01 v 3.908 c 0,0.562 -0.14,0.994 -0.422,1.297 -0.28,0.302 -0.663,0.453 -1.149,0.453 -0.494,0 -0.883,-0.151 -1.169,-0.453 -0.285,-0.303 -0.428,-0.735 -0.428,-1.297 V -6.38 h -1.788 v 7.076 h 1.788 v -0.881 c 0.24,0.307 0.543,0.547 0.914,0.722 0.37,0.174 0.777,0.261 1.22,0.261 C -1.201,0.798 -0.52,0.532 0,0"
                   style="fill:#e54e62;fill-opacity:1;fill-rule:nonzero;stroke:none"
                   id="path1777" />
              </g>
              <path
                 d="m 394.564,214.764 h -1.788 v 9.453 h 1.788 z"
                 style="fill:#e54e62;fill-opacity:1;fill-rule:nonzero;stroke:none"
                 id="path1779" />
              <path
                 d="m 398.193,214.764 h -1.788 v 7.077 h 1.788 z m 0.498,8.915 -2.938,-1.341 v 1.278 l 2.938,1.52 z"
                 style="fill:#e54e62;fill-opacity:1;fill-rule:nonzero;stroke:none"
                 id="path1781" />
              <g
                 id="g1783"
                 transform="translate(410.9212,221.1441)">
                <path
                   d="M 0,0 C 0.533,-0.533 0.799,-1.275 0.799,-2.229 V -6.38 H -0.99 v 3.908 c 0,0.554 -0.14,0.978 -0.421,1.272 -0.28,0.293 -0.664,0.44 -1.15,0.44 -0.485,0 -0.871,-0.147 -1.156,-0.44 -0.285,-0.294 -0.428,-0.718 -0.428,-1.272 V -6.38 h -1.789 v 3.908 c 0,0.554 -0.14,0.978 -0.42,1.272 -0.282,0.293 -0.665,0.44 -1.151,0.44 -0.494,0 -0.883,-0.147 -1.169,-0.44 -0.285,-0.294 -0.428,-0.718 -0.428,-1.272 V -6.38 h -1.788 v 7.076 h 1.788 V -0.16 c 0.231,0.298 0.527,0.533 0.889,0.703 0.361,0.17 0.76,0.255 1.194,0.255 0.553,0 1.047,-0.117 1.482,-0.351 0.434,-0.234 0.77,-0.569 1.009,-1.003 0.23,0.409 0.564,0.737 1.003,0.984 0.438,0.247 0.913,0.37 1.424,0.37 C -1.232,0.798 -0.532,0.532 0,0"
                   style="fill:#e54e62;fill-opacity:1;fill-rule:nonzero;stroke:none"
                   id="path1785" />
              </g>
              <path
                 d="m 415.206,214.764 h -1.788 v 7.077 h 1.788 z m -1.666,8.22 c -0.209,0.199 -0.313,0.449 -0.313,0.747 0,0.298 0.104,0.547 0.313,0.747 0.209,0.2 0.47,0.3 0.786,0.3 0.315,0 0.577,-0.1 0.786,-0.3 0.208,-0.2 0.312,-0.449 0.312,-0.747 0,-0.298 -0.104,-0.548 -0.312,-0.747 -0.209,-0.201 -0.471,-0.301 -0.786,-0.301 -0.316,0 -0.577,0.1 -0.786,0.301"
                 style="fill:#e54e62;fill-opacity:1;fill-rule:nonzero;stroke:none"
                 id="path1787" />
              <g
                 id="g1789"
                 transform="translate(419.0521,220.3716)">
                <path
                   d="m 0,0 v -3.424 c 0,-0.239 0.058,-0.411 0.173,-0.517 0.114,-0.107 0.308,-0.16 0.581,-0.16 h 0.83 V -5.608 H 0.461 c -1.508,0 -2.262,0.732 -2.262,2.197 V 0 h -0.844 v 1.469 h 0.844 v 1.75 H 0 V 1.469 H 1.584 V 0 Z"
                   style="fill:#e54e62;fill-opacity:1;fill-rule:nonzero;stroke:none"
                   id="path1791" />
              </g>
              <g
                 id="g1793"
                 transform="translate(426.6527,218.9663)">
                <path
                   d="M 0,0 C -0.009,0.459 -0.174,0.828 -0.498,1.104 -0.821,1.381 -1.218,1.52 -1.687,1.52 -2.129,1.52 -2.502,1.385 -2.804,1.118 -3.105,0.85 -3.292,0.476 -3.359,0 Z m 1.801,-1.201 h -5.173 c 0.042,-0.511 0.221,-0.911 0.536,-1.201 0.315,-0.29 0.703,-0.434 1.162,-0.434 0.665,0 1.138,0.285 1.419,0.856 H 1.674 C 1.47,-2.662 1.077,-3.221 0.498,-3.66 c -0.579,-0.439 -1.29,-0.658 -2.134,-0.658 -0.68,0 -1.291,0.151 -1.832,0.453 -0.541,0.303 -0.962,0.731 -1.264,1.284 -0.303,0.554 -0.455,1.192 -0.455,1.916 0,0.733 0.15,1.375 0.448,1.93 0.298,0.553 0.716,0.979 1.252,1.277 0.536,0.298 1.154,0.447 1.851,0.447 0.674,0 1.277,-0.145 1.809,-0.435 0.532,-0.289 0.944,-0.7 1.239,-1.232 0.294,-0.533 0.441,-1.143 0.441,-1.833 0,-0.256 -0.018,-0.486 -0.052,-0.69"
                   style="fill:#e54e62;fill-opacity:1;fill-rule:nonzero;stroke:none"
                   id="path1795" />
              </g>
              <g
                 id="g1797"
                 transform="translate(430.9574,214.9615)">
                <path
                   d="M 0,0 C -0.46,0.208 -0.824,0.492 -1.093,0.85 -1.36,1.207 -1.507,1.603 -1.533,2.037 H 0.269 C 0.303,1.765 0.437,1.54 0.671,1.361 0.905,1.181 1.196,1.092 1.546,1.092 1.887,1.092 2.152,1.16 2.344,1.296 2.536,1.433 2.631,1.607 2.631,1.82 2.631,2.05 2.515,2.222 2.28,2.337 2.046,2.453 1.674,2.578 1.162,2.714 0.635,2.842 0.202,2.974 -0.134,3.111 -0.471,3.247 -0.76,3.456 -1.003,3.736 c -0.243,0.282 -0.363,0.66 -0.363,1.138 0,0.391 0.112,0.748 0.338,1.072 0.225,0.324 0.549,0.579 0.97,0.767 C 0.364,6.9 0.86,6.994 1.431,6.994 2.274,6.994 2.946,6.783 3.449,6.361 3.952,5.94 4.229,5.371 4.279,4.656 H 2.567 C 2.542,4.937 2.425,5.161 2.216,5.327 2.007,5.493 1.729,5.576 1.38,5.576 1.056,5.576 0.807,5.516 0.632,5.396 0.457,5.277 0.371,5.112 0.371,4.899 0.371,4.661 0.49,4.479 0.729,4.356 0.966,4.233 1.337,4.106 1.84,3.979 2.351,3.852 2.771,3.719 3.104,3.583 3.437,3.447 3.724,3.236 3.966,2.951 4.209,2.666 4.334,2.288 4.343,1.82 4.343,1.412 4.23,1.045 4.005,0.722 3.778,0.397 3.455,0.145 3.034,-0.038 2.612,-0.222 2.121,-0.313 1.559,-0.313 0.979,-0.313 0.46,-0.209 0,0"
                   style="fill:#e54e62;fill-opacity:1;fill-rule:nonzero;stroke:none"
                   id="path1799" />
              </g>
              <g
                 id="g1801"
                 transform="translate(436.763,214.9742)">
                <path
                   d="m 0,0 c -0.209,0.2 -0.312,0.449 -0.312,0.747 0,0.298 0.103,0.547 0.312,0.748 0.209,0.199 0.475,0.3 0.799,0.3 0.314,0 0.575,-0.101 0.779,-0.3 C 1.782,1.294 1.884,1.045 1.884,0.747 1.884,0.449 1.782,0.2 1.578,0 1.374,-0.2 1.113,-0.3 0.799,-0.3 0.475,-0.3 0.209,-0.2 0,0"
                   style="fill:#e54e62;fill-opacity:1;fill-rule:nonzero;stroke:none"
                   id="path1803" />
              </g>
              <g
                 id="g1805"
                 transform="translate(174.4105,259.6577)">
                <path
                   d="m 0,0 c 1.325,2.483 3.207,4.418 5.646,5.805 2.437,1.386 5.241,2.08 8.411,2.08 4.022,0 7.404,-1.074 10.148,-3.222 2.742,-2.149 4.51,-5.068 5.302,-8.754 h -9.646 c -0.579,1.218 -1.379,2.148 -2.399,2.788 -1.022,0.64 -2.202,0.96 -3.543,0.96 -2.072,0 -3.726,-0.739 -4.959,-2.217 -1.234,-1.478 -1.852,-3.451 -1.852,-5.92 0,-2.499 0.618,-4.487 1.852,-5.965 1.233,-1.478 2.887,-2.217 4.959,-2.217 1.341,0 2.521,0.32 3.543,0.96 1.02,0.64 1.82,1.569 2.399,2.788 h 9.646 c -0.792,-3.688 -2.56,-6.605 -5.302,-8.753 -2.744,-2.149 -6.126,-3.223 -10.148,-3.223 -3.17,0 -5.974,0.692 -8.411,2.079 -2.439,1.387 -4.321,3.322 -5.646,5.806 -1.326,2.484 -1.988,5.325 -1.988,8.525 0,3.169 0.662,5.996 1.988,8.48"
                   style="fill:#e54e62;fill-opacity:1;fill-rule:nonzero;stroke:none"
                   id="path1807" />
              </g>
              <path
                 d="m 217.128,234.996 h -8.96 v 33.827 h 8.96 z"
                 style="fill:#e54e62;fill-opacity:1;fill-rule:nonzero;stroke:none"
                 id="path1809" />
              <g
                 id="g1811"
                 transform="translate(237.9036,251.7266)">
                <path
                   d="m 0,0 c -0.898,0.944 -2.004,1.417 -3.313,1.417 -1.342,0 -2.455,-0.465 -3.337,-1.394 -0.885,-0.931 -1.327,-2.232 -1.327,-3.909 0,-1.645 0.442,-2.948 1.327,-3.908 0.882,-0.96 1.995,-1.44 3.337,-1.44 1.309,0 2.415,0.472 3.313,1.417 0.899,0.944 1.35,2.255 1.35,3.931 C 1.35,-2.24 0.899,-0.945 0,0 m -15.679,3.063 c 0.96,1.98 2.27,3.503 3.931,4.571 1.661,1.066 3.513,1.599 5.555,1.599 1.767,0 3.291,-0.35 4.571,-1.051 C -0.343,7.481 0.647,6.537 1.35,5.349 v 3.565 h 8.959 V -16.73 H 1.35 v 3.564 c -0.703,-1.188 -1.7,-2.133 -2.995,-2.833 -1.295,-0.701 -2.811,-1.051 -4.548,-1.051 -2.042,0 -3.894,0.532 -5.555,1.599 -1.661,1.067 -2.971,2.597 -3.931,4.595 -0.96,1.995 -1.439,4.319 -1.439,6.97 0,2.651 0.479,4.968 1.439,6.949"
                   style="fill:#e54e62;fill-opacity:1;fill-rule:nonzero;stroke:none"
                   id="path1813" />
              </g>
              <g
                 id="g1815"
                 transform="translate(258.0628,235.8418)">
                <path
                   d="M 0,0 C -1.813,0.777 -3.246,1.844 -4.297,3.2 -5.349,4.555 -5.936,6.087 -6.058,7.794 H 2.628 C 2.75,6.971 3.131,6.331 3.771,5.874 4.411,5.417 5.203,5.188 6.148,5.188 c 0.732,0 1.31,0.152 1.738,0.458 0.426,0.303 0.639,0.7 0.639,1.188 0,0.64 -0.35,1.112 -1.05,1.416 C 6.772,8.555 5.614,8.891 4,9.256 2.171,9.623 0.647,10.034 -0.571,10.49 c -1.22,0.458 -2.28,1.204 -3.177,2.24 -0.899,1.037 -1.35,2.438 -1.35,4.206 0,1.524 0.412,2.903 1.236,4.137 0.822,1.235 2.034,2.218 3.633,2.949 1.6,0.731 3.528,1.096 5.784,1.096 3.35,0 5.987,-0.822 7.907,-2.468 1.92,-1.646 3.032,-3.81 3.337,-6.491 H 8.708 c -0.152,0.823 -0.511,1.455 -1.074,1.898 -0.565,0.441 -1.319,0.662 -2.263,0.662 -0.731,0 -1.288,-0.137 -1.669,-0.412 -0.381,-0.274 -0.571,-0.656 -0.571,-1.142 0,-0.61 0.35,-1.075 1.052,-1.394 0.701,-0.32 1.828,-0.648 3.382,-0.983 1.859,-0.397 3.406,-0.839 4.64,-1.326 1.234,-0.488 2.316,-1.273 3.246,-2.354 0.929,-1.082 1.394,-2.553 1.394,-4.411 0,-1.494 -0.434,-2.834 -1.303,-4.023 C 14.674,1.485 13.439,0.549 11.84,-0.137 10.239,-0.823 8.357,-1.166 6.194,-1.166 3.877,-1.166 1.812,-0.777 0,0"
                   style="fill:#e54e62;fill-opacity:1;fill-rule:nonzero;stroke:none"
                   id="path1817" />
              </g>
              <g
                 id="g1819"
                 transform="translate(284.0267,235.8418)">
                <path
                   d="M 0,0 C -1.813,0.777 -3.246,1.844 -4.297,3.2 -5.349,4.555 -5.936,6.087 -6.058,7.794 H 2.628 C 2.75,6.971 3.131,6.331 3.771,5.874 4.411,5.417 5.203,5.188 6.148,5.188 c 0.732,0 1.31,0.152 1.738,0.458 0.426,0.303 0.639,0.7 0.639,1.188 0,0.64 -0.35,1.112 -1.05,1.416 C 6.772,8.555 5.614,8.891 4,9.256 2.171,9.623 0.647,10.034 -0.571,10.49 c -1.22,0.458 -2.28,1.204 -3.177,2.24 -0.899,1.037 -1.35,2.438 -1.35,4.206 0,1.524 0.412,2.903 1.236,4.137 0.822,1.235 2.034,2.218 3.633,2.949 1.6,0.731 3.528,1.096 5.784,1.096 3.351,0 5.987,-0.822 7.907,-2.468 1.92,-1.646 3.032,-3.81 3.337,-6.491 H 8.708 c -0.152,0.823 -0.511,1.455 -1.074,1.898 -0.565,0.441 -1.319,0.662 -2.263,0.662 -0.731,0 -1.288,-0.137 -1.668,-0.412 -0.382,-0.274 -0.572,-0.656 -0.572,-1.142 0,-0.61 0.35,-1.075 1.052,-1.394 0.701,-0.32 1.828,-0.648 3.382,-0.983 1.859,-0.397 3.406,-0.839 4.64,-1.326 1.234,-0.488 2.316,-1.273 3.246,-2.354 0.929,-1.082 1.394,-2.553 1.394,-4.411 0,-1.494 -0.434,-2.834 -1.303,-4.023 C 14.674,1.485 13.439,0.549 11.84,-0.137 10.239,-0.823 8.357,-1.166 6.194,-1.166 3.877,-1.166 1.812,-0.777 0,0"
                   style="fill:#e54e62;fill-opacity:1;fill-rule:nonzero;stroke:none"
                   id="path1821" />
              </g>
              <g
                 id="g1823"
                 transform="translate(329.099,257.9204)">
                <path
                   d="m 0,0 c 1.721,-1.966 2.582,-4.625 2.582,-7.977 v -14.947 h -8.96 v 13.759 c 0,1.462 -0.381,2.612 -1.143,3.451 -0.761,0.838 -1.782,1.257 -3.062,1.257 -1.342,0 -2.393,-0.419 -3.154,-1.257 -0.763,-0.839 -1.143,-1.989 -1.143,-3.451 v -13.759 h -8.96 v 33.827 h 8.96 v -11.84 c 0.792,1.158 1.866,2.095 3.223,2.811 1.355,0.716 2.918,1.074 4.685,1.074 C -4.047,2.948 -1.723,1.965 0,0"
                   style="fill:#e54e62;fill-opacity:1;fill-rule:nonzero;stroke:none"
                   id="path1825" />
              </g>
              <g
                 id="g1827"
                 transform="translate(351.679,243.8413)">
                <path
                   d="M 0,0 C 0.838,0.929 1.257,2.263 1.257,4 1.257,5.737 0.838,7.062 0,7.977 -0.838,8.891 -1.867,9.348 -3.085,9.348 -4.305,9.348 -5.325,8.891 -6.148,7.977 -6.971,7.062 -7.383,5.737 -7.383,4 c 0,-1.768 0.396,-3.109 1.19,-4.023 0.791,-0.914 1.812,-1.371 3.062,-1.371 1.248,0 2.293,0.464 3.131,1.394 m -10.011,-7.565 c -2.027,1.066 -3.619,2.59 -4.777,4.571 -1.158,1.98 -1.736,4.312 -1.736,6.994 0,2.65 0.586,4.967 1.759,6.948 1.172,1.981 2.773,3.504 4.799,4.571 2.027,1.066 4.32,1.6 6.881,1.6 2.56,0 4.852,-0.534 6.879,-1.6 2.026,-1.067 3.626,-2.59 4.8,-4.571 C 9.767,8.967 10.354,6.65 10.354,4 10.354,1.348 9.767,-0.976 8.594,-2.971 7.42,-4.968 5.812,-6.499 3.771,-7.565 c -2.042,-1.067 -4.342,-1.6 -6.902,-1.6 -2.56,0 -4.853,0.533 -6.88,1.6"
                   style="fill:#e54e62;fill-opacity:1;fill-rule:nonzero;stroke:none"
                   id="path1829" />
              </g>
              <g
                 id="g1831"
                 transform="translate(406.808,257.9439)">
                <path
                   d="m 0,0 c 1.843,-1.951 2.766,-4.617 2.766,-8 v -14.948 h -8.96 v 13.76 c 0,1.371 -0.382,2.437 -1.144,3.199 -0.761,0.762 -1.798,1.143 -3.108,1.143 -1.31,0 -2.346,-0.381 -3.108,-1.143 -0.762,-0.762 -1.143,-1.828 -1.143,-3.199 v -13.76 h -8.96 v 13.76 c 0,1.371 -0.373,2.437 -1.119,3.199 -0.747,0.762 -1.776,1.143 -3.085,1.143 -1.343,0 -2.394,-0.381 -3.156,-1.143 -0.761,-0.762 -1.142,-1.828 -1.142,-3.199 v -13.76 h -8.959 V 2.696 h 8.959 v -3.382 c 0.793,1.097 1.821,1.973 3.086,2.628 1.263,0.655 2.719,0.983 4.365,0.983 1.89,0 3.573,-0.411 5.052,-1.234 1.477,-0.822 2.642,-1.982 3.496,-3.475 0.914,1.402 2.118,2.538 3.611,3.406 1.493,0.869 3.139,1.303 4.938,1.303 C -4.382,2.925 -1.845,1.949 0,0"
                   style="fill:#e54e62;fill-opacity:1;fill-rule:nonzero;stroke:none"
                   id="path1833" />
              </g>
              <g
                 id="g1835"
                 transform="translate(429.8226,250.3555)">
                <path
                   d="M 0,0 C 0,1.097 -0.366,1.957 -1.098,2.583 -1.828,3.207 -2.742,3.52 -3.84,3.52 -4.937,3.52 -5.836,3.223 -6.537,2.628 -7.238,2.034 -7.695,1.158 -7.908,0 Z M 9.006,-4.343 H -7.953 c 0.091,-1.402 0.479,-2.446 1.165,-3.131 0.685,-0.686 1.561,-1.029 2.629,-1.029 1.492,0 2.559,0.67 3.199,2.012 H 8.594 C 8.197,-8.259 7.428,-9.836 6.285,-11.223 5.143,-12.61 3.702,-13.699 1.966,-14.491 c -1.737,-0.793 -3.657,-1.188 -5.76,-1.188 -2.53,0 -4.777,0.533 -6.742,1.599 -1.966,1.067 -3.505,2.591 -4.617,4.572 -1.113,1.98 -1.668,4.312 -1.668,6.993 0,2.682 0.548,5.006 1.644,6.972 1.098,1.965 2.629,3.48 4.595,4.548 1.966,1.066 4.228,1.599 6.788,1.599 2.529,0 4.77,-0.518 6.72,-1.553 C 4.875,8.015 6.399,6.529 7.497,4.594 8.594,2.658 9.143,0.38 9.143,-2.24 c 0,-0.702 -0.046,-1.402 -0.137,-2.103"
                   style="fill:#e54e62;fill-opacity:1;fill-rule:nonzero;stroke:none"
                   id="path1837" />
              </g>
              <path
                 d="M 97.546,215.196 H 76.085 v 73.5 h 21.461 z"
                 style="fill:#e54e62;fill-opacity:1;fill-rule:nonzero;stroke:none"
                 id="path2073" />
              <path
                 d="m 130.088,216.933 h 19.461 v 69.865 h -19.461 z m 21.461,-1.898 h -23.461 v 73.661 h 23.461 z"
                 style="fill:#e54e62;fill-opacity:1;fill-rule:nonzero;stroke:none"
                 id="path2075" />
              <path
                 d="m 103.476,242.525 h 18.733 v 18.733 h -18.733 z m 20.569,-1.836 H 101.64 v 22.405 h 22.405 z"
                 style="fill:#e54e62;fill-opacity:1;fill-rule:nonzero;stroke:none"
                 id="path2077" />
              <path
                 d="m 124.056,215.086 h -22.405 v 22.406 h 22.405 z"
                 style="fill:#e54e62;fill-opacity:1;fill-rule:nonzero;stroke:none"
                 id="path2079" />
              <path
                 d="M 124.045,266.291 H 101.64 v 22.405 h 22.405 z"
                 style="fill:#e54e62;fill-opacity:1;fill-rule:nonzero;stroke:none"
                 id="path2081" />
            </g>
          </g>
        </g>
      </g>
    </g>
  </g>
</svg>
